G04 EAGLE Gerber RS-274X export*
G75*
%MOMM*%
%FSLAX34Y34*%
%LPD*%
%INTop Copper*%
%IPPOS*%
%AMOC8*
5,1,8,0,0,1.08239X$1,22.5*%
G01*
%ADD10P,4.123906X8X22.500000*%
%ADD11C,1.860000*%

G36*
X228650Y25031D02*
X228650Y25031D01*
X228701Y25033D01*
X228733Y25051D01*
X228769Y25059D01*
X228808Y25092D01*
X228853Y25116D01*
X228874Y25146D01*
X228902Y25169D01*
X228923Y25216D01*
X228953Y25258D01*
X228961Y25300D01*
X228973Y25328D01*
X228972Y25358D01*
X228980Y25400D01*
X228980Y85090D01*
X228969Y85140D01*
X228967Y85191D01*
X228949Y85223D01*
X228941Y85259D01*
X228908Y85298D01*
X228884Y85343D01*
X228854Y85364D01*
X228831Y85392D01*
X228784Y85413D01*
X228742Y85443D01*
X228700Y85451D01*
X228672Y85463D01*
X228642Y85462D01*
X228600Y85470D01*
X165100Y85470D01*
X165050Y85459D01*
X164999Y85457D01*
X164967Y85439D01*
X164931Y85431D01*
X164892Y85398D01*
X164847Y85374D01*
X164826Y85344D01*
X164798Y85321D01*
X164777Y85274D01*
X164747Y85232D01*
X164739Y85190D01*
X164727Y85162D01*
X164728Y85132D01*
X164720Y85090D01*
X164720Y25400D01*
X164731Y25350D01*
X164733Y25299D01*
X164751Y25267D01*
X164759Y25231D01*
X164792Y25192D01*
X164816Y25147D01*
X164846Y25126D01*
X164869Y25098D01*
X164916Y25077D01*
X164958Y25047D01*
X165000Y25039D01*
X165028Y25027D01*
X165058Y25028D01*
X165100Y25020D01*
X228600Y25020D01*
X228650Y25031D01*
G37*
D10*
X43180Y148590D03*
X43180Y256540D03*
X635000Y228600D03*
X635000Y148590D03*
D11*
X150400Y148800D03*
X150400Y256300D03*
X535400Y148800D03*
X535400Y228800D03*
M02*
