G04 EAGLE Gerber RS-274X export*
G75*
%MOMM*%
%FSLAX34Y34*%
%LPD*%
%INSilkscreen Top*%
%IPPOS*%
%AMOC8*
5,1,8,0,0,1.08239X$1,22.5*%
G01*
%ADD10C,0.254000*%
%ADD11C,0.101600*%
%ADD12C,0.152400*%
%ADD13C,0.203200*%
%ADD14C,0.127000*%


D10*
X168275Y82550D02*
X225425Y82550D01*
X225425Y28575D01*
X168275Y28575D01*
X168275Y82550D01*
D11*
X241808Y80772D02*
X241808Y69088D01*
X245703Y74281D02*
X241808Y80772D01*
X245703Y74281D02*
X249597Y80772D01*
X249597Y69088D01*
X256865Y69088D02*
X260110Y69088D01*
X256865Y69088D02*
X256778Y69090D01*
X256690Y69096D01*
X256604Y69106D01*
X256517Y69119D01*
X256432Y69137D01*
X256347Y69158D01*
X256263Y69183D01*
X256181Y69212D01*
X256100Y69245D01*
X256020Y69281D01*
X255942Y69320D01*
X255866Y69364D01*
X255792Y69410D01*
X255721Y69460D01*
X255651Y69513D01*
X255584Y69569D01*
X255520Y69628D01*
X255458Y69690D01*
X255399Y69754D01*
X255343Y69821D01*
X255290Y69891D01*
X255240Y69962D01*
X255194Y70036D01*
X255150Y70112D01*
X255111Y70190D01*
X255075Y70270D01*
X255042Y70351D01*
X255013Y70433D01*
X254988Y70517D01*
X254967Y70602D01*
X254949Y70687D01*
X254936Y70774D01*
X254926Y70860D01*
X254920Y70948D01*
X254918Y71035D01*
X254917Y71035D02*
X254917Y74281D01*
X254918Y74281D02*
X254920Y74382D01*
X254926Y74482D01*
X254936Y74582D01*
X254949Y74682D01*
X254967Y74781D01*
X254988Y74880D01*
X255013Y74977D01*
X255042Y75074D01*
X255075Y75169D01*
X255111Y75263D01*
X255151Y75355D01*
X255194Y75446D01*
X255241Y75535D01*
X255291Y75622D01*
X255345Y75708D01*
X255402Y75791D01*
X255462Y75871D01*
X255525Y75950D01*
X255592Y76026D01*
X255661Y76099D01*
X255733Y76169D01*
X255807Y76237D01*
X255884Y76302D01*
X255964Y76363D01*
X256046Y76422D01*
X256130Y76477D01*
X256216Y76529D01*
X256304Y76578D01*
X256394Y76623D01*
X256486Y76665D01*
X256579Y76703D01*
X256674Y76737D01*
X256769Y76768D01*
X256866Y76795D01*
X256964Y76818D01*
X257063Y76838D01*
X257163Y76853D01*
X257263Y76865D01*
X257363Y76873D01*
X257464Y76877D01*
X257564Y76877D01*
X257665Y76873D01*
X257765Y76865D01*
X257865Y76853D01*
X257965Y76838D01*
X258064Y76818D01*
X258162Y76795D01*
X258259Y76768D01*
X258354Y76737D01*
X258449Y76703D01*
X258542Y76665D01*
X258634Y76623D01*
X258724Y76578D01*
X258812Y76529D01*
X258898Y76477D01*
X258982Y76422D01*
X259064Y76363D01*
X259144Y76302D01*
X259221Y76237D01*
X259295Y76169D01*
X259367Y76099D01*
X259436Y76026D01*
X259503Y75950D01*
X259566Y75871D01*
X259626Y75791D01*
X259683Y75708D01*
X259737Y75622D01*
X259787Y75535D01*
X259834Y75446D01*
X259877Y75355D01*
X259917Y75263D01*
X259953Y75169D01*
X259986Y75074D01*
X260015Y74977D01*
X260040Y74880D01*
X260061Y74781D01*
X260079Y74682D01*
X260092Y74582D01*
X260102Y74482D01*
X260108Y74382D01*
X260110Y74281D01*
X260110Y72983D01*
X254917Y72983D01*
X267036Y73632D02*
X269957Y73632D01*
X267036Y73632D02*
X266942Y73630D01*
X266848Y73624D01*
X266755Y73615D01*
X266662Y73601D01*
X266570Y73584D01*
X266478Y73562D01*
X266388Y73538D01*
X266298Y73509D01*
X266210Y73477D01*
X266123Y73441D01*
X266038Y73401D01*
X265955Y73358D01*
X265873Y73312D01*
X265793Y73262D01*
X265716Y73209D01*
X265641Y73153D01*
X265568Y73094D01*
X265497Y73032D01*
X265429Y72967D01*
X265364Y72899D01*
X265302Y72828D01*
X265243Y72755D01*
X265187Y72680D01*
X265134Y72603D01*
X265084Y72523D01*
X265038Y72441D01*
X264995Y72358D01*
X264955Y72273D01*
X264919Y72186D01*
X264887Y72098D01*
X264858Y72008D01*
X264834Y71918D01*
X264812Y71826D01*
X264795Y71734D01*
X264781Y71641D01*
X264772Y71548D01*
X264766Y71454D01*
X264764Y71360D01*
X264766Y71266D01*
X264772Y71172D01*
X264781Y71079D01*
X264795Y70986D01*
X264812Y70894D01*
X264834Y70802D01*
X264858Y70712D01*
X264887Y70622D01*
X264919Y70534D01*
X264955Y70447D01*
X264995Y70362D01*
X265038Y70279D01*
X265084Y70197D01*
X265134Y70117D01*
X265187Y70040D01*
X265243Y69965D01*
X265302Y69892D01*
X265364Y69821D01*
X265429Y69753D01*
X265497Y69688D01*
X265568Y69626D01*
X265641Y69567D01*
X265716Y69511D01*
X265793Y69458D01*
X265873Y69408D01*
X265955Y69362D01*
X266038Y69319D01*
X266123Y69279D01*
X266210Y69243D01*
X266298Y69211D01*
X266388Y69182D01*
X266478Y69158D01*
X266570Y69136D01*
X266662Y69119D01*
X266755Y69105D01*
X266848Y69096D01*
X266942Y69090D01*
X267036Y69088D01*
X269957Y69088D01*
X269957Y74930D01*
X269955Y75017D01*
X269949Y75105D01*
X269939Y75191D01*
X269926Y75278D01*
X269908Y75363D01*
X269887Y75448D01*
X269862Y75532D01*
X269833Y75614D01*
X269800Y75695D01*
X269764Y75775D01*
X269725Y75853D01*
X269681Y75929D01*
X269635Y76003D01*
X269585Y76074D01*
X269532Y76144D01*
X269476Y76211D01*
X269417Y76275D01*
X269355Y76337D01*
X269291Y76396D01*
X269224Y76452D01*
X269154Y76505D01*
X269083Y76555D01*
X269009Y76601D01*
X268933Y76645D01*
X268855Y76684D01*
X268775Y76720D01*
X268694Y76753D01*
X268612Y76782D01*
X268528Y76807D01*
X268443Y76828D01*
X268358Y76846D01*
X268271Y76859D01*
X268185Y76869D01*
X268097Y76875D01*
X268010Y76877D01*
X265413Y76877D01*
X275491Y76877D02*
X275491Y69088D01*
X275491Y76877D02*
X278737Y76877D01*
X278824Y76875D01*
X278912Y76869D01*
X278998Y76859D01*
X279085Y76846D01*
X279170Y76828D01*
X279255Y76807D01*
X279339Y76782D01*
X279421Y76753D01*
X279502Y76720D01*
X279582Y76684D01*
X279660Y76645D01*
X279736Y76601D01*
X279810Y76555D01*
X279881Y76505D01*
X279951Y76452D01*
X280018Y76396D01*
X280082Y76337D01*
X280144Y76276D01*
X280203Y76211D01*
X280259Y76144D01*
X280312Y76074D01*
X280362Y76003D01*
X280408Y75929D01*
X280452Y75853D01*
X280491Y75775D01*
X280527Y75695D01*
X280560Y75614D01*
X280589Y75532D01*
X280614Y75448D01*
X280635Y75363D01*
X280653Y75278D01*
X280666Y75191D01*
X280676Y75105D01*
X280682Y75017D01*
X280684Y74930D01*
X280684Y69088D01*
X288064Y69088D02*
X285468Y80772D01*
X290661Y76877D02*
X288064Y69088D01*
X293257Y69088D02*
X290661Y76877D01*
X295854Y80772D02*
X293257Y69088D01*
X302204Y69088D02*
X305449Y69088D01*
X302204Y69088D02*
X302117Y69090D01*
X302029Y69096D01*
X301943Y69106D01*
X301856Y69119D01*
X301771Y69137D01*
X301686Y69158D01*
X301602Y69183D01*
X301520Y69212D01*
X301439Y69245D01*
X301359Y69281D01*
X301281Y69320D01*
X301205Y69364D01*
X301131Y69410D01*
X301060Y69460D01*
X300990Y69513D01*
X300923Y69569D01*
X300859Y69628D01*
X300797Y69690D01*
X300738Y69754D01*
X300682Y69821D01*
X300629Y69891D01*
X300579Y69962D01*
X300533Y70036D01*
X300489Y70112D01*
X300450Y70190D01*
X300414Y70270D01*
X300381Y70351D01*
X300352Y70433D01*
X300327Y70517D01*
X300306Y70602D01*
X300288Y70687D01*
X300275Y70774D01*
X300265Y70860D01*
X300259Y70948D01*
X300257Y71035D01*
X300256Y71035D02*
X300256Y74281D01*
X300257Y74281D02*
X300259Y74382D01*
X300265Y74482D01*
X300275Y74582D01*
X300288Y74682D01*
X300306Y74781D01*
X300327Y74880D01*
X300352Y74977D01*
X300381Y75074D01*
X300414Y75169D01*
X300450Y75263D01*
X300490Y75355D01*
X300533Y75446D01*
X300580Y75535D01*
X300630Y75622D01*
X300684Y75708D01*
X300741Y75791D01*
X300801Y75871D01*
X300864Y75950D01*
X300931Y76026D01*
X301000Y76099D01*
X301072Y76169D01*
X301146Y76237D01*
X301223Y76302D01*
X301303Y76363D01*
X301385Y76422D01*
X301469Y76477D01*
X301555Y76529D01*
X301643Y76578D01*
X301733Y76623D01*
X301825Y76665D01*
X301918Y76703D01*
X302013Y76737D01*
X302108Y76768D01*
X302205Y76795D01*
X302303Y76818D01*
X302402Y76838D01*
X302502Y76853D01*
X302602Y76865D01*
X302702Y76873D01*
X302803Y76877D01*
X302903Y76877D01*
X303004Y76873D01*
X303104Y76865D01*
X303204Y76853D01*
X303304Y76838D01*
X303403Y76818D01*
X303501Y76795D01*
X303598Y76768D01*
X303693Y76737D01*
X303788Y76703D01*
X303881Y76665D01*
X303973Y76623D01*
X304063Y76578D01*
X304151Y76529D01*
X304237Y76477D01*
X304321Y76422D01*
X304403Y76363D01*
X304483Y76302D01*
X304560Y76237D01*
X304634Y76169D01*
X304706Y76099D01*
X304775Y76026D01*
X304842Y75950D01*
X304905Y75871D01*
X304965Y75791D01*
X305022Y75708D01*
X305076Y75622D01*
X305126Y75535D01*
X305173Y75446D01*
X305216Y75355D01*
X305256Y75263D01*
X305292Y75169D01*
X305325Y75074D01*
X305354Y74977D01*
X305379Y74880D01*
X305400Y74781D01*
X305418Y74682D01*
X305431Y74582D01*
X305441Y74482D01*
X305447Y74382D01*
X305449Y74281D01*
X305449Y72983D01*
X300256Y72983D01*
X310312Y71035D02*
X310312Y80772D01*
X310312Y71035D02*
X310314Y70948D01*
X310320Y70860D01*
X310330Y70774D01*
X310343Y70687D01*
X310361Y70602D01*
X310382Y70517D01*
X310407Y70433D01*
X310436Y70351D01*
X310469Y70270D01*
X310505Y70190D01*
X310544Y70112D01*
X310588Y70036D01*
X310634Y69962D01*
X310684Y69891D01*
X310737Y69821D01*
X310793Y69754D01*
X310852Y69690D01*
X310914Y69628D01*
X310978Y69569D01*
X311045Y69513D01*
X311115Y69460D01*
X311186Y69410D01*
X311260Y69364D01*
X311336Y69320D01*
X311414Y69281D01*
X311494Y69245D01*
X311575Y69212D01*
X311657Y69183D01*
X311741Y69158D01*
X311826Y69137D01*
X311911Y69119D01*
X311998Y69106D01*
X312084Y69096D01*
X312172Y69090D01*
X312259Y69088D01*
X316408Y71035D02*
X316408Y80772D01*
X316408Y71035D02*
X316410Y70948D01*
X316416Y70860D01*
X316426Y70774D01*
X316439Y70687D01*
X316457Y70602D01*
X316478Y70517D01*
X316503Y70433D01*
X316532Y70351D01*
X316565Y70270D01*
X316601Y70190D01*
X316640Y70112D01*
X316684Y70036D01*
X316730Y69962D01*
X316780Y69891D01*
X316833Y69821D01*
X316889Y69754D01*
X316948Y69690D01*
X317010Y69628D01*
X317074Y69569D01*
X317141Y69513D01*
X317211Y69460D01*
X317282Y69410D01*
X317356Y69364D01*
X317432Y69320D01*
X317510Y69281D01*
X317590Y69245D01*
X317671Y69212D01*
X317753Y69183D01*
X317837Y69158D01*
X317922Y69137D01*
X318007Y69119D01*
X318094Y69106D01*
X318180Y69096D01*
X318268Y69090D01*
X318355Y69088D01*
X329523Y69088D02*
X329523Y80772D01*
X328224Y69088D02*
X330821Y69088D01*
X330821Y80772D02*
X328224Y80772D01*
X335876Y80772D02*
X335876Y69088D01*
X335876Y80772D02*
X339121Y80772D01*
X339234Y80770D01*
X339347Y80764D01*
X339460Y80754D01*
X339573Y80740D01*
X339685Y80723D01*
X339796Y80701D01*
X339906Y80676D01*
X340016Y80646D01*
X340124Y80613D01*
X340231Y80576D01*
X340337Y80536D01*
X340441Y80491D01*
X340544Y80443D01*
X340645Y80392D01*
X340744Y80337D01*
X340841Y80279D01*
X340936Y80217D01*
X341029Y80152D01*
X341119Y80084D01*
X341207Y80013D01*
X341293Y79938D01*
X341376Y79861D01*
X341456Y79781D01*
X341533Y79698D01*
X341608Y79612D01*
X341679Y79524D01*
X341747Y79434D01*
X341812Y79341D01*
X341874Y79246D01*
X341932Y79149D01*
X341987Y79050D01*
X342038Y78949D01*
X342086Y78846D01*
X342131Y78742D01*
X342171Y78636D01*
X342208Y78529D01*
X342241Y78421D01*
X342271Y78311D01*
X342296Y78201D01*
X342318Y78090D01*
X342335Y77978D01*
X342349Y77865D01*
X342359Y77752D01*
X342365Y77639D01*
X342367Y77526D01*
X342365Y77413D01*
X342359Y77300D01*
X342349Y77187D01*
X342335Y77074D01*
X342318Y76962D01*
X342296Y76851D01*
X342271Y76741D01*
X342241Y76631D01*
X342208Y76523D01*
X342171Y76416D01*
X342131Y76310D01*
X342086Y76206D01*
X342038Y76103D01*
X341987Y76002D01*
X341932Y75903D01*
X341874Y75806D01*
X341812Y75711D01*
X341747Y75618D01*
X341679Y75528D01*
X341608Y75440D01*
X341533Y75354D01*
X341456Y75271D01*
X341376Y75191D01*
X341293Y75114D01*
X341207Y75039D01*
X341119Y74968D01*
X341029Y74900D01*
X340936Y74835D01*
X340841Y74773D01*
X340744Y74715D01*
X340645Y74660D01*
X340544Y74609D01*
X340441Y74561D01*
X340337Y74516D01*
X340231Y74476D01*
X340124Y74439D01*
X340016Y74406D01*
X339906Y74376D01*
X339796Y74351D01*
X339685Y74329D01*
X339573Y74312D01*
X339460Y74298D01*
X339347Y74288D01*
X339234Y74282D01*
X339121Y74280D01*
X339121Y74281D02*
X335876Y74281D01*
X339770Y74281D02*
X342367Y69088D01*
X347726Y69088D02*
X347726Y80772D01*
X351621Y74281D01*
X355515Y80772D01*
X355515Y69088D01*
X361061Y73632D02*
X368850Y73632D01*
X373902Y74930D02*
X373905Y75160D01*
X373913Y75390D01*
X373927Y75619D01*
X373946Y75848D01*
X373971Y76077D01*
X374001Y76304D01*
X374036Y76532D01*
X374077Y76758D01*
X374123Y76983D01*
X374175Y77207D01*
X374232Y77429D01*
X374294Y77651D01*
X374362Y77870D01*
X374435Y78088D01*
X374513Y78305D01*
X374596Y78519D01*
X374684Y78731D01*
X374777Y78941D01*
X374876Y79149D01*
X374909Y79239D01*
X374945Y79328D01*
X374985Y79416D01*
X375029Y79501D01*
X375076Y79585D01*
X375126Y79667D01*
X375180Y79747D01*
X375236Y79824D01*
X375296Y79900D01*
X375359Y79973D01*
X375424Y80043D01*
X375493Y80111D01*
X375564Y80175D01*
X375637Y80237D01*
X375713Y80296D01*
X375791Y80352D01*
X375872Y80405D01*
X375954Y80454D01*
X376038Y80500D01*
X376125Y80543D01*
X376212Y80582D01*
X376302Y80618D01*
X376392Y80650D01*
X376484Y80678D01*
X376577Y80703D01*
X376671Y80724D01*
X376765Y80741D01*
X376860Y80755D01*
X376956Y80764D01*
X377052Y80770D01*
X377148Y80772D01*
X377244Y80770D01*
X377340Y80764D01*
X377436Y80755D01*
X377531Y80741D01*
X377625Y80724D01*
X377719Y80703D01*
X377812Y80678D01*
X377904Y80650D01*
X377994Y80618D01*
X378084Y80582D01*
X378171Y80543D01*
X378258Y80500D01*
X378342Y80454D01*
X378424Y80405D01*
X378505Y80352D01*
X378583Y80296D01*
X378659Y80237D01*
X378732Y80175D01*
X378803Y80111D01*
X378872Y80043D01*
X378937Y79973D01*
X379000Y79900D01*
X379060Y79824D01*
X379116Y79747D01*
X379170Y79667D01*
X379220Y79585D01*
X379267Y79501D01*
X379311Y79416D01*
X379351Y79328D01*
X379387Y79239D01*
X379420Y79149D01*
X379519Y78942D01*
X379612Y78732D01*
X379700Y78519D01*
X379783Y78305D01*
X379861Y78089D01*
X379934Y77871D01*
X380002Y77651D01*
X380064Y77430D01*
X380121Y77207D01*
X380173Y76983D01*
X380219Y76758D01*
X380260Y76532D01*
X380295Y76305D01*
X380325Y76077D01*
X380350Y75848D01*
X380369Y75619D01*
X380383Y75390D01*
X380391Y75160D01*
X380394Y74930D01*
X373902Y74930D02*
X373905Y74700D01*
X373913Y74470D01*
X373927Y74241D01*
X373946Y74012D01*
X373971Y73783D01*
X374001Y73555D01*
X374036Y73328D01*
X374077Y73102D01*
X374123Y72877D01*
X374175Y72653D01*
X374232Y72430D01*
X374294Y72209D01*
X374362Y71989D01*
X374435Y71771D01*
X374513Y71555D01*
X374596Y71341D01*
X374684Y71129D01*
X374777Y70918D01*
X374876Y70711D01*
X374909Y70621D01*
X374945Y70532D01*
X374986Y70444D01*
X375029Y70359D01*
X375076Y70275D01*
X375126Y70193D01*
X375180Y70113D01*
X375236Y70036D01*
X375296Y69960D01*
X375359Y69887D01*
X375424Y69817D01*
X375493Y69749D01*
X375564Y69685D01*
X375637Y69623D01*
X375713Y69564D01*
X375791Y69508D01*
X375872Y69455D01*
X375954Y69406D01*
X376038Y69360D01*
X376125Y69317D01*
X376212Y69278D01*
X376302Y69242D01*
X376392Y69210D01*
X376484Y69182D01*
X376577Y69157D01*
X376671Y69136D01*
X376765Y69119D01*
X376860Y69105D01*
X376956Y69096D01*
X377052Y69090D01*
X377148Y69088D01*
X379419Y70711D02*
X379518Y70918D01*
X379611Y71129D01*
X379699Y71341D01*
X379782Y71555D01*
X379860Y71771D01*
X379933Y71989D01*
X380001Y72209D01*
X380063Y72430D01*
X380120Y72653D01*
X380172Y72877D01*
X380218Y73102D01*
X380259Y73328D01*
X380294Y73555D01*
X380324Y73783D01*
X380349Y74012D01*
X380368Y74241D01*
X380382Y74470D01*
X380390Y74700D01*
X380393Y74930D01*
X379420Y70711D02*
X379387Y70621D01*
X379351Y70532D01*
X379311Y70444D01*
X379267Y70359D01*
X379220Y70275D01*
X379170Y70193D01*
X379116Y70113D01*
X379060Y70036D01*
X379000Y69960D01*
X378937Y69887D01*
X378872Y69817D01*
X378803Y69749D01*
X378732Y69685D01*
X378659Y69623D01*
X378583Y69564D01*
X378505Y69508D01*
X378424Y69455D01*
X378342Y69406D01*
X378258Y69360D01*
X378171Y69317D01*
X378084Y69278D01*
X377994Y69242D01*
X377904Y69210D01*
X377812Y69182D01*
X377719Y69157D01*
X377625Y69136D01*
X377531Y69119D01*
X377436Y69105D01*
X377340Y69096D01*
X377244Y69090D01*
X377148Y69088D01*
X374551Y71684D02*
X379744Y78176D01*
X385332Y69088D02*
X389227Y69088D01*
X389326Y69090D01*
X389426Y69096D01*
X389525Y69105D01*
X389623Y69118D01*
X389721Y69135D01*
X389819Y69156D01*
X389915Y69181D01*
X390010Y69209D01*
X390104Y69241D01*
X390197Y69276D01*
X390289Y69315D01*
X390379Y69358D01*
X390467Y69403D01*
X390554Y69453D01*
X390638Y69505D01*
X390721Y69561D01*
X390801Y69619D01*
X390879Y69681D01*
X390954Y69746D01*
X391027Y69814D01*
X391097Y69884D01*
X391165Y69957D01*
X391230Y70032D01*
X391292Y70110D01*
X391350Y70190D01*
X391406Y70273D01*
X391458Y70357D01*
X391508Y70444D01*
X391553Y70532D01*
X391596Y70622D01*
X391635Y70714D01*
X391670Y70807D01*
X391702Y70901D01*
X391730Y70996D01*
X391755Y71092D01*
X391776Y71190D01*
X391793Y71288D01*
X391806Y71386D01*
X391815Y71485D01*
X391821Y71585D01*
X391823Y71684D01*
X391823Y72983D01*
X391821Y73082D01*
X391815Y73182D01*
X391806Y73281D01*
X391793Y73379D01*
X391776Y73477D01*
X391755Y73575D01*
X391730Y73671D01*
X391702Y73766D01*
X391670Y73860D01*
X391635Y73953D01*
X391596Y74045D01*
X391553Y74135D01*
X391508Y74223D01*
X391458Y74310D01*
X391406Y74394D01*
X391350Y74477D01*
X391292Y74557D01*
X391230Y74635D01*
X391165Y74710D01*
X391097Y74783D01*
X391027Y74853D01*
X390954Y74921D01*
X390879Y74986D01*
X390801Y75048D01*
X390721Y75106D01*
X390638Y75162D01*
X390554Y75214D01*
X390467Y75264D01*
X390379Y75309D01*
X390289Y75352D01*
X390197Y75391D01*
X390104Y75426D01*
X390010Y75458D01*
X389915Y75486D01*
X389819Y75511D01*
X389721Y75532D01*
X389623Y75549D01*
X389525Y75562D01*
X389426Y75571D01*
X389326Y75577D01*
X389227Y75579D01*
X385332Y75579D01*
X385332Y80772D01*
X391823Y80772D01*
X396875Y73632D02*
X404664Y73632D01*
X409716Y69088D02*
X413611Y69088D01*
X413710Y69090D01*
X413810Y69096D01*
X413909Y69105D01*
X414007Y69118D01*
X414105Y69135D01*
X414203Y69156D01*
X414299Y69181D01*
X414394Y69209D01*
X414488Y69241D01*
X414581Y69276D01*
X414673Y69315D01*
X414763Y69358D01*
X414851Y69403D01*
X414938Y69453D01*
X415022Y69505D01*
X415105Y69561D01*
X415185Y69619D01*
X415263Y69681D01*
X415338Y69746D01*
X415411Y69814D01*
X415481Y69884D01*
X415549Y69957D01*
X415614Y70032D01*
X415676Y70110D01*
X415734Y70190D01*
X415790Y70273D01*
X415842Y70357D01*
X415892Y70444D01*
X415937Y70532D01*
X415980Y70622D01*
X416019Y70714D01*
X416054Y70807D01*
X416086Y70901D01*
X416114Y70996D01*
X416139Y71092D01*
X416160Y71190D01*
X416177Y71288D01*
X416190Y71386D01*
X416199Y71485D01*
X416205Y71585D01*
X416207Y71684D01*
X416207Y72983D01*
X416205Y73082D01*
X416199Y73182D01*
X416190Y73281D01*
X416177Y73379D01*
X416160Y73477D01*
X416139Y73575D01*
X416114Y73671D01*
X416086Y73766D01*
X416054Y73860D01*
X416019Y73953D01*
X415980Y74045D01*
X415937Y74135D01*
X415892Y74223D01*
X415842Y74310D01*
X415790Y74394D01*
X415734Y74477D01*
X415676Y74557D01*
X415614Y74635D01*
X415549Y74710D01*
X415481Y74783D01*
X415411Y74853D01*
X415338Y74921D01*
X415263Y74986D01*
X415185Y75048D01*
X415105Y75106D01*
X415022Y75162D01*
X414938Y75214D01*
X414851Y75264D01*
X414763Y75309D01*
X414673Y75352D01*
X414581Y75391D01*
X414488Y75426D01*
X414394Y75458D01*
X414299Y75486D01*
X414203Y75511D01*
X414105Y75532D01*
X414007Y75549D01*
X413909Y75562D01*
X413810Y75571D01*
X413710Y75577D01*
X413611Y75579D01*
X409716Y75579D01*
X409716Y80772D01*
X416207Y80772D01*
X445008Y24892D02*
X445008Y13208D01*
X445008Y20997D02*
X448254Y20997D01*
X448341Y20995D01*
X448429Y20989D01*
X448515Y20979D01*
X448602Y20966D01*
X448687Y20948D01*
X448772Y20927D01*
X448856Y20902D01*
X448938Y20873D01*
X449019Y20840D01*
X449099Y20804D01*
X449177Y20765D01*
X449253Y20721D01*
X449327Y20675D01*
X449398Y20625D01*
X449468Y20572D01*
X449535Y20516D01*
X449599Y20457D01*
X449661Y20396D01*
X449720Y20331D01*
X449776Y20264D01*
X449829Y20194D01*
X449879Y20123D01*
X449925Y20049D01*
X449969Y19973D01*
X450008Y19895D01*
X450044Y19815D01*
X450077Y19734D01*
X450106Y19652D01*
X450131Y19568D01*
X450152Y19483D01*
X450170Y19398D01*
X450183Y19311D01*
X450193Y19225D01*
X450199Y19137D01*
X450201Y19050D01*
X450201Y13208D01*
X454328Y20997D02*
X458222Y20997D01*
X455626Y24892D02*
X455626Y15155D01*
X455628Y15068D01*
X455634Y14980D01*
X455644Y14894D01*
X455657Y14807D01*
X455675Y14722D01*
X455696Y14637D01*
X455721Y14553D01*
X455750Y14471D01*
X455783Y14390D01*
X455819Y14310D01*
X455858Y14232D01*
X455902Y14156D01*
X455948Y14082D01*
X455998Y14011D01*
X456051Y13941D01*
X456107Y13874D01*
X456166Y13810D01*
X456228Y13748D01*
X456292Y13689D01*
X456359Y13633D01*
X456429Y13580D01*
X456500Y13530D01*
X456574Y13484D01*
X456650Y13440D01*
X456728Y13401D01*
X456808Y13365D01*
X456889Y13332D01*
X456971Y13303D01*
X457055Y13278D01*
X457140Y13257D01*
X457225Y13239D01*
X457312Y13226D01*
X457398Y13216D01*
X457486Y13210D01*
X457573Y13208D01*
X458222Y13208D01*
X461567Y20997D02*
X465461Y20997D01*
X462865Y24892D02*
X462865Y15155D01*
X462867Y15068D01*
X462873Y14980D01*
X462883Y14894D01*
X462896Y14807D01*
X462914Y14722D01*
X462935Y14637D01*
X462960Y14553D01*
X462989Y14471D01*
X463022Y14390D01*
X463058Y14310D01*
X463097Y14232D01*
X463141Y14156D01*
X463187Y14082D01*
X463237Y14011D01*
X463290Y13941D01*
X463346Y13874D01*
X463405Y13810D01*
X463467Y13748D01*
X463531Y13689D01*
X463598Y13633D01*
X463668Y13580D01*
X463739Y13530D01*
X463813Y13484D01*
X463889Y13440D01*
X463967Y13401D01*
X464047Y13365D01*
X464128Y13332D01*
X464210Y13303D01*
X464294Y13278D01*
X464379Y13257D01*
X464464Y13239D01*
X464551Y13226D01*
X464637Y13216D01*
X464725Y13210D01*
X464812Y13208D01*
X465461Y13208D01*
X470213Y9313D02*
X470213Y20997D01*
X473458Y20997D01*
X473545Y20995D01*
X473633Y20989D01*
X473719Y20979D01*
X473806Y20966D01*
X473891Y20948D01*
X473976Y20927D01*
X474060Y20902D01*
X474142Y20873D01*
X474223Y20840D01*
X474303Y20804D01*
X474381Y20765D01*
X474457Y20721D01*
X474531Y20675D01*
X474602Y20625D01*
X474672Y20572D01*
X474739Y20516D01*
X474803Y20457D01*
X474865Y20396D01*
X474924Y20331D01*
X474980Y20264D01*
X475033Y20194D01*
X475083Y20123D01*
X475129Y20049D01*
X475173Y19973D01*
X475212Y19895D01*
X475248Y19815D01*
X475281Y19734D01*
X475310Y19652D01*
X475335Y19568D01*
X475356Y19483D01*
X475374Y19398D01*
X475387Y19311D01*
X475397Y19225D01*
X475403Y19137D01*
X475405Y19050D01*
X475406Y19050D02*
X475406Y15155D01*
X475405Y15155D02*
X475403Y15068D01*
X475397Y14980D01*
X475387Y14894D01*
X475374Y14807D01*
X475356Y14722D01*
X475335Y14637D01*
X475310Y14553D01*
X475281Y14471D01*
X475248Y14390D01*
X475212Y14310D01*
X475173Y14232D01*
X475129Y14156D01*
X475083Y14082D01*
X475033Y14011D01*
X474980Y13941D01*
X474924Y13874D01*
X474865Y13810D01*
X474803Y13748D01*
X474739Y13689D01*
X474672Y13633D01*
X474602Y13580D01*
X474531Y13530D01*
X474457Y13484D01*
X474381Y13440D01*
X474303Y13401D01*
X474223Y13365D01*
X474142Y13332D01*
X474060Y13303D01*
X473976Y13278D01*
X473891Y13257D01*
X473806Y13239D01*
X473719Y13226D01*
X473633Y13216D01*
X473545Y13210D01*
X473458Y13208D01*
X470213Y13208D01*
X480046Y14182D02*
X480046Y14831D01*
X480695Y14831D01*
X480695Y14182D01*
X480046Y14182D01*
X480046Y19375D02*
X480046Y20024D01*
X480695Y20024D01*
X480695Y19375D01*
X480046Y19375D01*
X485013Y11910D02*
X490206Y26190D01*
X499350Y26190D02*
X494157Y11910D01*
X504289Y13208D02*
X504289Y20997D01*
X510131Y20997D01*
X510218Y20995D01*
X510306Y20989D01*
X510392Y20979D01*
X510479Y20966D01*
X510564Y20948D01*
X510649Y20927D01*
X510733Y20902D01*
X510815Y20873D01*
X510896Y20840D01*
X510976Y20804D01*
X511054Y20765D01*
X511130Y20721D01*
X511204Y20675D01*
X511275Y20625D01*
X511345Y20572D01*
X511412Y20516D01*
X511476Y20457D01*
X511538Y20395D01*
X511597Y20331D01*
X511653Y20264D01*
X511706Y20194D01*
X511756Y20123D01*
X511802Y20049D01*
X511846Y19973D01*
X511885Y19895D01*
X511921Y19815D01*
X511954Y19734D01*
X511983Y19652D01*
X512008Y19568D01*
X512029Y19483D01*
X512047Y19398D01*
X512060Y19311D01*
X512070Y19225D01*
X512076Y19137D01*
X512078Y19050D01*
X512078Y13208D01*
X508183Y13208D02*
X508183Y20997D01*
X517779Y20997D02*
X517779Y15155D01*
X517781Y15068D01*
X517787Y14980D01*
X517797Y14894D01*
X517810Y14807D01*
X517828Y14722D01*
X517849Y14637D01*
X517874Y14553D01*
X517903Y14471D01*
X517936Y14390D01*
X517972Y14310D01*
X518011Y14232D01*
X518055Y14156D01*
X518101Y14082D01*
X518151Y14011D01*
X518204Y13941D01*
X518260Y13874D01*
X518319Y13810D01*
X518381Y13748D01*
X518445Y13689D01*
X518512Y13633D01*
X518582Y13580D01*
X518653Y13530D01*
X518727Y13484D01*
X518803Y13440D01*
X518881Y13401D01*
X518961Y13365D01*
X519042Y13332D01*
X519124Y13303D01*
X519208Y13278D01*
X519293Y13257D01*
X519378Y13239D01*
X519465Y13226D01*
X519551Y13216D01*
X519639Y13210D01*
X519726Y13208D01*
X522972Y13208D01*
X522972Y20997D01*
X528692Y22945D02*
X528692Y13208D01*
X528693Y22945D02*
X528695Y23032D01*
X528701Y23120D01*
X528711Y23206D01*
X528724Y23293D01*
X528742Y23378D01*
X528763Y23463D01*
X528788Y23547D01*
X528817Y23629D01*
X528850Y23710D01*
X528886Y23790D01*
X528925Y23868D01*
X528969Y23944D01*
X529015Y24018D01*
X529065Y24089D01*
X529118Y24159D01*
X529174Y24226D01*
X529233Y24290D01*
X529294Y24352D01*
X529359Y24411D01*
X529426Y24467D01*
X529496Y24520D01*
X529567Y24570D01*
X529641Y24616D01*
X529717Y24660D01*
X529795Y24699D01*
X529875Y24735D01*
X529956Y24768D01*
X530038Y24797D01*
X530122Y24822D01*
X530207Y24843D01*
X530292Y24861D01*
X530379Y24874D01*
X530465Y24884D01*
X530553Y24890D01*
X530640Y24892D01*
X531289Y24892D01*
X531289Y20997D02*
X527394Y20997D01*
X535169Y22945D02*
X535169Y13208D01*
X535170Y22945D02*
X535172Y23032D01*
X535178Y23120D01*
X535188Y23206D01*
X535201Y23293D01*
X535219Y23378D01*
X535240Y23463D01*
X535265Y23547D01*
X535294Y23629D01*
X535327Y23710D01*
X535363Y23790D01*
X535402Y23868D01*
X535446Y23944D01*
X535492Y24018D01*
X535542Y24089D01*
X535595Y24159D01*
X535651Y24226D01*
X535710Y24290D01*
X535771Y24352D01*
X535836Y24411D01*
X535903Y24467D01*
X535973Y24520D01*
X536044Y24570D01*
X536118Y24616D01*
X536194Y24660D01*
X536272Y24699D01*
X536352Y24735D01*
X536433Y24768D01*
X536515Y24797D01*
X536599Y24822D01*
X536684Y24843D01*
X536769Y24861D01*
X536856Y24874D01*
X536942Y24884D01*
X537030Y24890D01*
X537117Y24892D01*
X537766Y24892D01*
X537766Y20997D02*
X533871Y20997D01*
X541994Y17752D02*
X545239Y16454D01*
X541994Y17751D02*
X541919Y17784D01*
X541845Y17820D01*
X541773Y17859D01*
X541703Y17902D01*
X541636Y17948D01*
X541570Y17998D01*
X541508Y18050D01*
X541447Y18106D01*
X541390Y18164D01*
X541335Y18225D01*
X541284Y18289D01*
X541236Y18355D01*
X541191Y18424D01*
X541149Y18494D01*
X541111Y18567D01*
X541076Y18641D01*
X541045Y18717D01*
X541018Y18794D01*
X540995Y18873D01*
X540975Y18952D01*
X540960Y19033D01*
X540948Y19114D01*
X540940Y19196D01*
X540936Y19277D01*
X540937Y19359D01*
X540941Y19441D01*
X540949Y19523D01*
X540961Y19604D01*
X540977Y19684D01*
X540997Y19764D01*
X541021Y19842D01*
X541049Y19919D01*
X541080Y19995D01*
X541115Y20069D01*
X541153Y20141D01*
X541195Y20212D01*
X541241Y20280D01*
X541289Y20346D01*
X541341Y20409D01*
X541396Y20470D01*
X541454Y20528D01*
X541514Y20584D01*
X541577Y20636D01*
X541643Y20685D01*
X541711Y20731D01*
X541781Y20773D01*
X541853Y20813D01*
X541927Y20848D01*
X542002Y20880D01*
X542079Y20908D01*
X542157Y20932D01*
X542237Y20953D01*
X542317Y20970D01*
X542398Y20982D01*
X542479Y20991D01*
X542561Y20996D01*
X542643Y20997D01*
X542642Y20997D02*
X542819Y20993D01*
X542996Y20984D01*
X543173Y20970D01*
X543350Y20953D01*
X543525Y20931D01*
X543701Y20906D01*
X543875Y20875D01*
X544049Y20841D01*
X544222Y20803D01*
X544394Y20760D01*
X544565Y20713D01*
X544735Y20663D01*
X544904Y20608D01*
X545071Y20549D01*
X545236Y20486D01*
X545401Y20419D01*
X545563Y20348D01*
X545239Y16454D02*
X545314Y16421D01*
X545388Y16385D01*
X545460Y16346D01*
X545530Y16303D01*
X545597Y16257D01*
X545663Y16207D01*
X545725Y16155D01*
X545786Y16099D01*
X545843Y16041D01*
X545898Y15980D01*
X545949Y15916D01*
X545997Y15850D01*
X546042Y15781D01*
X546084Y15711D01*
X546122Y15638D01*
X546157Y15564D01*
X546188Y15488D01*
X546215Y15411D01*
X546238Y15332D01*
X546258Y15253D01*
X546273Y15172D01*
X546285Y15091D01*
X546293Y15009D01*
X546297Y14928D01*
X546296Y14846D01*
X546292Y14764D01*
X546284Y14682D01*
X546272Y14601D01*
X546256Y14521D01*
X546236Y14441D01*
X546212Y14363D01*
X546184Y14286D01*
X546153Y14210D01*
X546118Y14136D01*
X546080Y14064D01*
X546038Y13993D01*
X545992Y13925D01*
X545944Y13859D01*
X545892Y13796D01*
X545837Y13735D01*
X545779Y13677D01*
X545719Y13621D01*
X545656Y13569D01*
X545590Y13520D01*
X545522Y13474D01*
X545452Y13432D01*
X545380Y13392D01*
X545306Y13357D01*
X545231Y13325D01*
X545154Y13297D01*
X545076Y13273D01*
X544996Y13252D01*
X544916Y13235D01*
X544835Y13223D01*
X544754Y13214D01*
X544672Y13209D01*
X544590Y13208D01*
X544330Y13215D01*
X544070Y13228D01*
X543810Y13247D01*
X543551Y13272D01*
X543292Y13304D01*
X543035Y13341D01*
X542778Y13385D01*
X542522Y13434D01*
X542268Y13490D01*
X542015Y13551D01*
X541764Y13619D01*
X541514Y13693D01*
X541266Y13772D01*
X541020Y13857D01*
X550545Y9313D02*
X551843Y9313D01*
X555738Y20997D01*
X550545Y20997D02*
X553141Y13208D01*
X559675Y13208D02*
X559675Y13857D01*
X560324Y13857D01*
X560324Y13208D01*
X559675Y13208D01*
X566602Y13208D02*
X569199Y13208D01*
X566602Y13208D02*
X566515Y13210D01*
X566427Y13216D01*
X566341Y13226D01*
X566254Y13239D01*
X566169Y13257D01*
X566084Y13278D01*
X566000Y13303D01*
X565918Y13332D01*
X565837Y13365D01*
X565757Y13401D01*
X565679Y13440D01*
X565603Y13484D01*
X565529Y13530D01*
X565458Y13580D01*
X565388Y13633D01*
X565321Y13689D01*
X565257Y13748D01*
X565195Y13810D01*
X565136Y13874D01*
X565080Y13941D01*
X565027Y14011D01*
X564977Y14082D01*
X564931Y14156D01*
X564887Y14232D01*
X564848Y14310D01*
X564812Y14390D01*
X564779Y14471D01*
X564750Y14553D01*
X564725Y14637D01*
X564704Y14722D01*
X564686Y14807D01*
X564673Y14894D01*
X564663Y14980D01*
X564657Y15068D01*
X564655Y15155D01*
X564655Y19050D01*
X564657Y19137D01*
X564663Y19225D01*
X564673Y19311D01*
X564686Y19398D01*
X564704Y19483D01*
X564725Y19568D01*
X564750Y19652D01*
X564779Y19734D01*
X564812Y19815D01*
X564848Y19895D01*
X564887Y19973D01*
X564931Y20049D01*
X564977Y20123D01*
X565027Y20194D01*
X565080Y20264D01*
X565136Y20331D01*
X565195Y20395D01*
X565257Y20457D01*
X565321Y20516D01*
X565388Y20572D01*
X565458Y20625D01*
X565529Y20675D01*
X565603Y20721D01*
X565679Y20765D01*
X565757Y20804D01*
X565837Y20840D01*
X565918Y20873D01*
X566000Y20902D01*
X566084Y20927D01*
X566169Y20948D01*
X566254Y20966D01*
X566341Y20979D01*
X566427Y20989D01*
X566515Y20995D01*
X566602Y20997D01*
X569199Y20997D01*
X573405Y18401D02*
X573405Y15804D01*
X573405Y18401D02*
X573407Y18502D01*
X573413Y18602D01*
X573423Y18702D01*
X573436Y18802D01*
X573454Y18901D01*
X573475Y19000D01*
X573500Y19097D01*
X573529Y19194D01*
X573562Y19289D01*
X573598Y19383D01*
X573638Y19475D01*
X573681Y19566D01*
X573728Y19655D01*
X573778Y19742D01*
X573832Y19828D01*
X573889Y19911D01*
X573949Y19991D01*
X574012Y20070D01*
X574079Y20146D01*
X574148Y20219D01*
X574220Y20289D01*
X574294Y20357D01*
X574371Y20422D01*
X574451Y20483D01*
X574533Y20542D01*
X574617Y20597D01*
X574703Y20649D01*
X574791Y20698D01*
X574881Y20743D01*
X574973Y20785D01*
X575066Y20823D01*
X575161Y20857D01*
X575256Y20888D01*
X575353Y20915D01*
X575451Y20938D01*
X575550Y20958D01*
X575650Y20973D01*
X575750Y20985D01*
X575850Y20993D01*
X575951Y20997D01*
X576051Y20997D01*
X576152Y20993D01*
X576252Y20985D01*
X576352Y20973D01*
X576452Y20958D01*
X576551Y20938D01*
X576649Y20915D01*
X576746Y20888D01*
X576841Y20857D01*
X576936Y20823D01*
X577029Y20785D01*
X577121Y20743D01*
X577211Y20698D01*
X577299Y20649D01*
X577385Y20597D01*
X577469Y20542D01*
X577551Y20483D01*
X577631Y20422D01*
X577708Y20357D01*
X577782Y20289D01*
X577854Y20219D01*
X577923Y20146D01*
X577990Y20070D01*
X578053Y19991D01*
X578113Y19911D01*
X578170Y19828D01*
X578224Y19742D01*
X578274Y19655D01*
X578321Y19566D01*
X578364Y19475D01*
X578404Y19383D01*
X578440Y19289D01*
X578473Y19194D01*
X578502Y19097D01*
X578527Y19000D01*
X578548Y18901D01*
X578566Y18802D01*
X578579Y18702D01*
X578589Y18602D01*
X578595Y18502D01*
X578597Y18401D01*
X578598Y18401D02*
X578598Y15804D01*
X578597Y15804D02*
X578595Y15703D01*
X578589Y15603D01*
X578579Y15503D01*
X578566Y15403D01*
X578548Y15304D01*
X578527Y15205D01*
X578502Y15108D01*
X578473Y15011D01*
X578440Y14916D01*
X578404Y14822D01*
X578364Y14730D01*
X578321Y14639D01*
X578274Y14550D01*
X578224Y14463D01*
X578170Y14377D01*
X578113Y14294D01*
X578053Y14214D01*
X577990Y14135D01*
X577923Y14059D01*
X577854Y13986D01*
X577782Y13916D01*
X577708Y13848D01*
X577631Y13783D01*
X577551Y13722D01*
X577469Y13663D01*
X577385Y13608D01*
X577299Y13556D01*
X577211Y13507D01*
X577121Y13462D01*
X577029Y13420D01*
X576936Y13382D01*
X576841Y13348D01*
X576746Y13317D01*
X576649Y13290D01*
X576551Y13267D01*
X576452Y13247D01*
X576352Y13232D01*
X576252Y13220D01*
X576152Y13212D01*
X576051Y13208D01*
X575951Y13208D01*
X575850Y13212D01*
X575750Y13220D01*
X575650Y13232D01*
X575550Y13247D01*
X575451Y13267D01*
X575353Y13290D01*
X575256Y13317D01*
X575161Y13348D01*
X575066Y13382D01*
X574973Y13420D01*
X574881Y13462D01*
X574791Y13507D01*
X574703Y13556D01*
X574617Y13608D01*
X574533Y13663D01*
X574451Y13722D01*
X574371Y13783D01*
X574294Y13848D01*
X574220Y13916D01*
X574148Y13986D01*
X574079Y14059D01*
X574012Y14135D01*
X573949Y14214D01*
X573889Y14294D01*
X573832Y14377D01*
X573778Y14463D01*
X573728Y14550D01*
X573681Y14639D01*
X573638Y14730D01*
X573598Y14822D01*
X573562Y14916D01*
X573529Y15011D01*
X573500Y15108D01*
X573475Y15205D01*
X573454Y15304D01*
X573436Y15403D01*
X573423Y15503D01*
X573413Y15603D01*
X573407Y15703D01*
X573405Y15804D01*
X583918Y13208D02*
X583918Y20997D01*
X589760Y20997D01*
X589847Y20995D01*
X589935Y20989D01*
X590021Y20979D01*
X590108Y20966D01*
X590193Y20948D01*
X590278Y20927D01*
X590362Y20902D01*
X590444Y20873D01*
X590525Y20840D01*
X590605Y20804D01*
X590683Y20765D01*
X590759Y20721D01*
X590833Y20675D01*
X590904Y20625D01*
X590974Y20572D01*
X591041Y20516D01*
X591105Y20457D01*
X591167Y20395D01*
X591226Y20331D01*
X591282Y20264D01*
X591335Y20194D01*
X591385Y20123D01*
X591431Y20049D01*
X591475Y19973D01*
X591514Y19895D01*
X591550Y19815D01*
X591583Y19734D01*
X591612Y19652D01*
X591637Y19568D01*
X591658Y19483D01*
X591676Y19398D01*
X591689Y19311D01*
X591699Y19225D01*
X591705Y19137D01*
X591707Y19050D01*
X591707Y13208D01*
X587812Y13208D02*
X587812Y20997D01*
X245054Y45099D02*
X241808Y45099D01*
X245054Y45100D02*
X245167Y45098D01*
X245280Y45092D01*
X245393Y45082D01*
X245506Y45068D01*
X245618Y45051D01*
X245729Y45029D01*
X245839Y45004D01*
X245949Y44974D01*
X246057Y44941D01*
X246164Y44904D01*
X246270Y44864D01*
X246374Y44819D01*
X246477Y44771D01*
X246578Y44720D01*
X246677Y44665D01*
X246774Y44607D01*
X246869Y44545D01*
X246962Y44480D01*
X247052Y44412D01*
X247140Y44341D01*
X247226Y44266D01*
X247309Y44189D01*
X247389Y44109D01*
X247466Y44026D01*
X247541Y43940D01*
X247612Y43852D01*
X247680Y43762D01*
X247745Y43669D01*
X247807Y43574D01*
X247865Y43477D01*
X247920Y43378D01*
X247971Y43277D01*
X248019Y43174D01*
X248064Y43070D01*
X248104Y42964D01*
X248141Y42857D01*
X248174Y42749D01*
X248204Y42639D01*
X248229Y42529D01*
X248251Y42418D01*
X248268Y42306D01*
X248282Y42193D01*
X248292Y42080D01*
X248298Y41967D01*
X248300Y41854D01*
X248298Y41741D01*
X248292Y41628D01*
X248282Y41515D01*
X248268Y41402D01*
X248251Y41290D01*
X248229Y41179D01*
X248204Y41069D01*
X248174Y40959D01*
X248141Y40851D01*
X248104Y40744D01*
X248064Y40638D01*
X248019Y40534D01*
X247971Y40431D01*
X247920Y40330D01*
X247865Y40231D01*
X247807Y40134D01*
X247745Y40039D01*
X247680Y39946D01*
X247612Y39856D01*
X247541Y39768D01*
X247466Y39682D01*
X247389Y39599D01*
X247309Y39519D01*
X247226Y39442D01*
X247140Y39367D01*
X247052Y39296D01*
X246962Y39228D01*
X246869Y39163D01*
X246774Y39101D01*
X246677Y39043D01*
X246578Y38988D01*
X246477Y38937D01*
X246374Y38889D01*
X246270Y38844D01*
X246164Y38804D01*
X246057Y38767D01*
X245949Y38734D01*
X245839Y38704D01*
X245729Y38679D01*
X245618Y38657D01*
X245506Y38640D01*
X245393Y38626D01*
X245280Y38616D01*
X245167Y38610D01*
X245054Y38608D01*
X241808Y38608D01*
X241808Y50292D01*
X245054Y50292D01*
X245155Y50290D01*
X245255Y50284D01*
X245355Y50274D01*
X245455Y50261D01*
X245554Y50243D01*
X245653Y50222D01*
X245750Y50197D01*
X245847Y50168D01*
X245942Y50135D01*
X246036Y50099D01*
X246128Y50059D01*
X246219Y50016D01*
X246308Y49969D01*
X246395Y49919D01*
X246481Y49865D01*
X246564Y49808D01*
X246644Y49748D01*
X246723Y49685D01*
X246799Y49618D01*
X246872Y49549D01*
X246942Y49477D01*
X247010Y49403D01*
X247075Y49326D01*
X247136Y49246D01*
X247195Y49164D01*
X247250Y49080D01*
X247302Y48994D01*
X247351Y48906D01*
X247396Y48816D01*
X247438Y48724D01*
X247476Y48631D01*
X247510Y48536D01*
X247541Y48441D01*
X247568Y48344D01*
X247591Y48246D01*
X247611Y48147D01*
X247626Y48047D01*
X247638Y47947D01*
X247646Y47847D01*
X247650Y47746D01*
X247650Y47646D01*
X247646Y47545D01*
X247638Y47445D01*
X247626Y47345D01*
X247611Y47245D01*
X247591Y47146D01*
X247568Y47048D01*
X247541Y46951D01*
X247510Y46856D01*
X247476Y46761D01*
X247438Y46668D01*
X247396Y46576D01*
X247351Y46486D01*
X247302Y46398D01*
X247250Y46312D01*
X247195Y46228D01*
X247136Y46146D01*
X247075Y46066D01*
X247010Y45989D01*
X246942Y45915D01*
X246872Y45843D01*
X246799Y45774D01*
X246723Y45707D01*
X246644Y45644D01*
X246564Y45584D01*
X246481Y45527D01*
X246395Y45473D01*
X246308Y45423D01*
X246219Y45376D01*
X246128Y45333D01*
X246036Y45293D01*
X245942Y45257D01*
X245847Y45224D01*
X245750Y45195D01*
X245653Y45170D01*
X245554Y45149D01*
X245455Y45131D01*
X245355Y45118D01*
X245255Y45108D01*
X245155Y45102D01*
X245054Y45100D01*
X253022Y46397D02*
X253022Y38608D01*
X253022Y46397D02*
X256917Y46397D01*
X256917Y45099D01*
X262523Y38608D02*
X265769Y38608D01*
X262523Y38608D02*
X262436Y38610D01*
X262348Y38616D01*
X262262Y38626D01*
X262175Y38639D01*
X262090Y38657D01*
X262005Y38678D01*
X261921Y38703D01*
X261839Y38732D01*
X261758Y38765D01*
X261678Y38801D01*
X261600Y38840D01*
X261524Y38884D01*
X261450Y38930D01*
X261379Y38980D01*
X261309Y39033D01*
X261242Y39089D01*
X261178Y39148D01*
X261116Y39210D01*
X261057Y39274D01*
X261001Y39341D01*
X260948Y39411D01*
X260898Y39482D01*
X260852Y39556D01*
X260808Y39632D01*
X260769Y39710D01*
X260733Y39790D01*
X260700Y39871D01*
X260671Y39953D01*
X260646Y40037D01*
X260625Y40122D01*
X260607Y40207D01*
X260594Y40294D01*
X260584Y40380D01*
X260578Y40468D01*
X260576Y40555D01*
X260576Y43801D01*
X260578Y43902D01*
X260584Y44002D01*
X260594Y44102D01*
X260607Y44202D01*
X260625Y44301D01*
X260646Y44400D01*
X260671Y44497D01*
X260700Y44594D01*
X260733Y44689D01*
X260769Y44783D01*
X260809Y44875D01*
X260852Y44966D01*
X260899Y45055D01*
X260949Y45142D01*
X261003Y45228D01*
X261060Y45311D01*
X261120Y45391D01*
X261183Y45470D01*
X261250Y45546D01*
X261319Y45619D01*
X261391Y45689D01*
X261465Y45757D01*
X261542Y45822D01*
X261622Y45883D01*
X261704Y45942D01*
X261788Y45997D01*
X261874Y46049D01*
X261962Y46098D01*
X262052Y46143D01*
X262144Y46185D01*
X262237Y46223D01*
X262332Y46257D01*
X262427Y46288D01*
X262524Y46315D01*
X262622Y46338D01*
X262721Y46358D01*
X262821Y46373D01*
X262921Y46385D01*
X263021Y46393D01*
X263122Y46397D01*
X263222Y46397D01*
X263323Y46393D01*
X263423Y46385D01*
X263523Y46373D01*
X263623Y46358D01*
X263722Y46338D01*
X263820Y46315D01*
X263917Y46288D01*
X264012Y46257D01*
X264107Y46223D01*
X264200Y46185D01*
X264292Y46143D01*
X264382Y46098D01*
X264470Y46049D01*
X264556Y45997D01*
X264640Y45942D01*
X264722Y45883D01*
X264802Y45822D01*
X264879Y45757D01*
X264953Y45689D01*
X265025Y45619D01*
X265094Y45546D01*
X265161Y45470D01*
X265224Y45391D01*
X265284Y45311D01*
X265341Y45228D01*
X265395Y45142D01*
X265445Y45055D01*
X265492Y44966D01*
X265535Y44875D01*
X265575Y44783D01*
X265611Y44689D01*
X265644Y44594D01*
X265673Y44497D01*
X265698Y44400D01*
X265719Y44301D01*
X265737Y44202D01*
X265750Y44102D01*
X265760Y44002D01*
X265766Y43902D01*
X265768Y43801D01*
X265769Y43801D02*
X265769Y42503D01*
X260576Y42503D01*
X272695Y43152D02*
X275616Y43152D01*
X272695Y43152D02*
X272601Y43150D01*
X272507Y43144D01*
X272414Y43135D01*
X272321Y43121D01*
X272229Y43104D01*
X272137Y43082D01*
X272047Y43058D01*
X271957Y43029D01*
X271869Y42997D01*
X271782Y42961D01*
X271697Y42921D01*
X271614Y42878D01*
X271532Y42832D01*
X271452Y42782D01*
X271375Y42729D01*
X271300Y42673D01*
X271227Y42614D01*
X271156Y42552D01*
X271088Y42487D01*
X271023Y42419D01*
X270961Y42348D01*
X270902Y42275D01*
X270846Y42200D01*
X270793Y42123D01*
X270743Y42043D01*
X270697Y41961D01*
X270654Y41878D01*
X270614Y41793D01*
X270578Y41706D01*
X270546Y41618D01*
X270517Y41528D01*
X270493Y41438D01*
X270471Y41346D01*
X270454Y41254D01*
X270440Y41161D01*
X270431Y41068D01*
X270425Y40974D01*
X270423Y40880D01*
X270425Y40786D01*
X270431Y40692D01*
X270440Y40599D01*
X270454Y40506D01*
X270471Y40414D01*
X270493Y40322D01*
X270517Y40232D01*
X270546Y40142D01*
X270578Y40054D01*
X270614Y39967D01*
X270654Y39882D01*
X270697Y39799D01*
X270743Y39717D01*
X270793Y39637D01*
X270846Y39560D01*
X270902Y39485D01*
X270961Y39412D01*
X271023Y39341D01*
X271088Y39273D01*
X271156Y39208D01*
X271227Y39146D01*
X271300Y39087D01*
X271375Y39031D01*
X271452Y38978D01*
X271532Y38928D01*
X271614Y38882D01*
X271697Y38839D01*
X271782Y38799D01*
X271869Y38763D01*
X271957Y38731D01*
X272047Y38702D01*
X272137Y38678D01*
X272229Y38656D01*
X272321Y38639D01*
X272414Y38625D01*
X272507Y38616D01*
X272601Y38610D01*
X272695Y38608D01*
X275616Y38608D01*
X275616Y44450D01*
X275615Y44450D02*
X275613Y44537D01*
X275607Y44625D01*
X275597Y44711D01*
X275584Y44798D01*
X275566Y44883D01*
X275545Y44968D01*
X275520Y45052D01*
X275491Y45134D01*
X275458Y45215D01*
X275422Y45295D01*
X275383Y45373D01*
X275339Y45449D01*
X275293Y45523D01*
X275243Y45594D01*
X275190Y45664D01*
X275134Y45731D01*
X275075Y45795D01*
X275013Y45857D01*
X274949Y45916D01*
X274882Y45972D01*
X274812Y46025D01*
X274741Y46075D01*
X274667Y46121D01*
X274591Y46165D01*
X274513Y46204D01*
X274433Y46240D01*
X274352Y46273D01*
X274270Y46302D01*
X274186Y46327D01*
X274101Y46348D01*
X274016Y46366D01*
X273929Y46379D01*
X273843Y46389D01*
X273755Y46395D01*
X273668Y46397D01*
X271072Y46397D01*
X281285Y50292D02*
X281285Y38608D01*
X281285Y42503D02*
X286478Y46397D01*
X283557Y44125D02*
X286478Y38608D01*
X290675Y41204D02*
X290675Y43801D01*
X290677Y43902D01*
X290683Y44002D01*
X290693Y44102D01*
X290706Y44202D01*
X290724Y44301D01*
X290745Y44400D01*
X290770Y44497D01*
X290799Y44594D01*
X290832Y44689D01*
X290868Y44783D01*
X290908Y44875D01*
X290951Y44966D01*
X290998Y45055D01*
X291048Y45142D01*
X291102Y45228D01*
X291159Y45311D01*
X291219Y45391D01*
X291282Y45470D01*
X291349Y45546D01*
X291418Y45619D01*
X291490Y45689D01*
X291564Y45757D01*
X291641Y45822D01*
X291721Y45883D01*
X291803Y45942D01*
X291887Y45997D01*
X291973Y46049D01*
X292061Y46098D01*
X292151Y46143D01*
X292243Y46185D01*
X292336Y46223D01*
X292431Y46257D01*
X292526Y46288D01*
X292623Y46315D01*
X292721Y46338D01*
X292820Y46358D01*
X292920Y46373D01*
X293020Y46385D01*
X293120Y46393D01*
X293221Y46397D01*
X293321Y46397D01*
X293422Y46393D01*
X293522Y46385D01*
X293622Y46373D01*
X293722Y46358D01*
X293821Y46338D01*
X293919Y46315D01*
X294016Y46288D01*
X294111Y46257D01*
X294206Y46223D01*
X294299Y46185D01*
X294391Y46143D01*
X294481Y46098D01*
X294569Y46049D01*
X294655Y45997D01*
X294739Y45942D01*
X294821Y45883D01*
X294901Y45822D01*
X294978Y45757D01*
X295052Y45689D01*
X295124Y45619D01*
X295193Y45546D01*
X295260Y45470D01*
X295323Y45391D01*
X295383Y45311D01*
X295440Y45228D01*
X295494Y45142D01*
X295544Y45055D01*
X295591Y44966D01*
X295634Y44875D01*
X295674Y44783D01*
X295710Y44689D01*
X295743Y44594D01*
X295772Y44497D01*
X295797Y44400D01*
X295818Y44301D01*
X295836Y44202D01*
X295849Y44102D01*
X295859Y44002D01*
X295865Y43902D01*
X295867Y43801D01*
X295868Y43801D02*
X295868Y41204D01*
X295867Y41204D02*
X295865Y41103D01*
X295859Y41003D01*
X295849Y40903D01*
X295836Y40803D01*
X295818Y40704D01*
X295797Y40605D01*
X295772Y40508D01*
X295743Y40411D01*
X295710Y40316D01*
X295674Y40222D01*
X295634Y40130D01*
X295591Y40039D01*
X295544Y39950D01*
X295494Y39863D01*
X295440Y39777D01*
X295383Y39694D01*
X295323Y39614D01*
X295260Y39535D01*
X295193Y39459D01*
X295124Y39386D01*
X295052Y39316D01*
X294978Y39248D01*
X294901Y39183D01*
X294821Y39122D01*
X294739Y39063D01*
X294655Y39008D01*
X294569Y38956D01*
X294481Y38907D01*
X294391Y38862D01*
X294299Y38820D01*
X294206Y38782D01*
X294111Y38748D01*
X294016Y38717D01*
X293919Y38690D01*
X293821Y38667D01*
X293722Y38647D01*
X293622Y38632D01*
X293522Y38620D01*
X293422Y38612D01*
X293321Y38608D01*
X293221Y38608D01*
X293120Y38612D01*
X293020Y38620D01*
X292920Y38632D01*
X292820Y38647D01*
X292721Y38667D01*
X292623Y38690D01*
X292526Y38717D01*
X292431Y38748D01*
X292336Y38782D01*
X292243Y38820D01*
X292151Y38862D01*
X292061Y38907D01*
X291973Y38956D01*
X291887Y39008D01*
X291803Y39063D01*
X291721Y39122D01*
X291641Y39183D01*
X291564Y39248D01*
X291490Y39316D01*
X291418Y39386D01*
X291349Y39459D01*
X291282Y39535D01*
X291219Y39614D01*
X291159Y39694D01*
X291102Y39777D01*
X291048Y39863D01*
X290998Y39950D01*
X290951Y40039D01*
X290908Y40130D01*
X290868Y40222D01*
X290832Y40316D01*
X290799Y40411D01*
X290770Y40508D01*
X290745Y40605D01*
X290724Y40704D01*
X290706Y40803D01*
X290693Y40903D01*
X290683Y41003D01*
X290677Y41103D01*
X290675Y41204D01*
X300962Y40555D02*
X300962Y46397D01*
X300962Y40555D02*
X300964Y40468D01*
X300970Y40380D01*
X300980Y40294D01*
X300993Y40207D01*
X301011Y40122D01*
X301032Y40037D01*
X301057Y39953D01*
X301086Y39871D01*
X301119Y39790D01*
X301155Y39710D01*
X301194Y39632D01*
X301238Y39556D01*
X301284Y39482D01*
X301334Y39411D01*
X301387Y39341D01*
X301443Y39274D01*
X301502Y39210D01*
X301564Y39148D01*
X301628Y39089D01*
X301695Y39033D01*
X301765Y38980D01*
X301836Y38930D01*
X301910Y38884D01*
X301986Y38840D01*
X302064Y38801D01*
X302144Y38765D01*
X302225Y38732D01*
X302307Y38703D01*
X302391Y38678D01*
X302476Y38657D01*
X302561Y38639D01*
X302648Y38626D01*
X302734Y38616D01*
X302822Y38610D01*
X302909Y38608D01*
X306155Y38608D01*
X306155Y46397D01*
X310281Y46397D02*
X314176Y46397D01*
X311580Y50292D02*
X311580Y40555D01*
X311582Y40468D01*
X311588Y40380D01*
X311598Y40294D01*
X311611Y40207D01*
X311629Y40122D01*
X311650Y40037D01*
X311675Y39953D01*
X311704Y39871D01*
X311737Y39790D01*
X311773Y39710D01*
X311812Y39632D01*
X311856Y39556D01*
X311902Y39482D01*
X311952Y39411D01*
X312005Y39341D01*
X312061Y39274D01*
X312120Y39210D01*
X312182Y39148D01*
X312246Y39089D01*
X312313Y39033D01*
X312383Y38980D01*
X312454Y38930D01*
X312528Y38884D01*
X312604Y38840D01*
X312682Y38801D01*
X312762Y38765D01*
X312843Y38732D01*
X312925Y38703D01*
X313009Y38678D01*
X313094Y38657D01*
X313179Y38639D01*
X313266Y38626D01*
X313352Y38616D01*
X313440Y38610D01*
X313527Y38608D01*
X314176Y38608D01*
X325247Y45099D02*
X328492Y45099D01*
X328492Y45100D02*
X328605Y45098D01*
X328718Y45092D01*
X328831Y45082D01*
X328944Y45068D01*
X329056Y45051D01*
X329167Y45029D01*
X329277Y45004D01*
X329387Y44974D01*
X329495Y44941D01*
X329602Y44904D01*
X329708Y44864D01*
X329812Y44819D01*
X329915Y44771D01*
X330016Y44720D01*
X330115Y44665D01*
X330212Y44607D01*
X330307Y44545D01*
X330400Y44480D01*
X330490Y44412D01*
X330578Y44341D01*
X330664Y44266D01*
X330747Y44189D01*
X330827Y44109D01*
X330904Y44026D01*
X330979Y43940D01*
X331050Y43852D01*
X331118Y43762D01*
X331183Y43669D01*
X331245Y43574D01*
X331303Y43477D01*
X331358Y43378D01*
X331409Y43277D01*
X331457Y43174D01*
X331502Y43070D01*
X331542Y42964D01*
X331579Y42857D01*
X331612Y42749D01*
X331642Y42639D01*
X331667Y42529D01*
X331689Y42418D01*
X331706Y42306D01*
X331720Y42193D01*
X331730Y42080D01*
X331736Y41967D01*
X331738Y41854D01*
X331736Y41741D01*
X331730Y41628D01*
X331720Y41515D01*
X331706Y41402D01*
X331689Y41290D01*
X331667Y41179D01*
X331642Y41069D01*
X331612Y40959D01*
X331579Y40851D01*
X331542Y40744D01*
X331502Y40638D01*
X331457Y40534D01*
X331409Y40431D01*
X331358Y40330D01*
X331303Y40231D01*
X331245Y40134D01*
X331183Y40039D01*
X331118Y39946D01*
X331050Y39856D01*
X330979Y39768D01*
X330904Y39682D01*
X330827Y39599D01*
X330747Y39519D01*
X330664Y39442D01*
X330578Y39367D01*
X330490Y39296D01*
X330400Y39228D01*
X330307Y39163D01*
X330212Y39101D01*
X330115Y39043D01*
X330016Y38988D01*
X329915Y38937D01*
X329812Y38889D01*
X329708Y38844D01*
X329602Y38804D01*
X329495Y38767D01*
X329387Y38734D01*
X329277Y38704D01*
X329167Y38679D01*
X329056Y38657D01*
X328944Y38640D01*
X328831Y38626D01*
X328718Y38616D01*
X328605Y38610D01*
X328492Y38608D01*
X325247Y38608D01*
X325247Y50292D01*
X328492Y50292D01*
X328593Y50290D01*
X328693Y50284D01*
X328793Y50274D01*
X328893Y50261D01*
X328992Y50243D01*
X329091Y50222D01*
X329188Y50197D01*
X329285Y50168D01*
X329380Y50135D01*
X329474Y50099D01*
X329566Y50059D01*
X329657Y50016D01*
X329746Y49969D01*
X329833Y49919D01*
X329919Y49865D01*
X330002Y49808D01*
X330082Y49748D01*
X330161Y49685D01*
X330237Y49618D01*
X330310Y49549D01*
X330380Y49477D01*
X330448Y49403D01*
X330513Y49326D01*
X330574Y49246D01*
X330633Y49164D01*
X330688Y49080D01*
X330740Y48994D01*
X330789Y48906D01*
X330834Y48816D01*
X330876Y48724D01*
X330914Y48631D01*
X330948Y48536D01*
X330979Y48441D01*
X331006Y48344D01*
X331029Y48246D01*
X331049Y48147D01*
X331064Y48047D01*
X331076Y47947D01*
X331084Y47847D01*
X331088Y47746D01*
X331088Y47646D01*
X331084Y47545D01*
X331076Y47445D01*
X331064Y47345D01*
X331049Y47245D01*
X331029Y47146D01*
X331006Y47048D01*
X330979Y46951D01*
X330948Y46856D01*
X330914Y46761D01*
X330876Y46668D01*
X330834Y46576D01*
X330789Y46486D01*
X330740Y46398D01*
X330688Y46312D01*
X330633Y46228D01*
X330574Y46146D01*
X330513Y46066D01*
X330448Y45989D01*
X330380Y45915D01*
X330310Y45843D01*
X330237Y45774D01*
X330161Y45707D01*
X330082Y45644D01*
X330002Y45584D01*
X329919Y45527D01*
X329833Y45473D01*
X329746Y45423D01*
X329657Y45376D01*
X329566Y45333D01*
X329474Y45293D01*
X329380Y45257D01*
X329285Y45224D01*
X329188Y45195D01*
X329091Y45170D01*
X328992Y45149D01*
X328893Y45131D01*
X328793Y45118D01*
X328693Y45108D01*
X328593Y45102D01*
X328492Y45100D01*
X336014Y43801D02*
X336014Y41204D01*
X336014Y43801D02*
X336016Y43902D01*
X336022Y44002D01*
X336032Y44102D01*
X336045Y44202D01*
X336063Y44301D01*
X336084Y44400D01*
X336109Y44497D01*
X336138Y44594D01*
X336171Y44689D01*
X336207Y44783D01*
X336247Y44875D01*
X336290Y44966D01*
X336337Y45055D01*
X336387Y45142D01*
X336441Y45228D01*
X336498Y45311D01*
X336558Y45391D01*
X336621Y45470D01*
X336688Y45546D01*
X336757Y45619D01*
X336829Y45689D01*
X336903Y45757D01*
X336980Y45822D01*
X337060Y45883D01*
X337142Y45942D01*
X337226Y45997D01*
X337312Y46049D01*
X337400Y46098D01*
X337490Y46143D01*
X337582Y46185D01*
X337675Y46223D01*
X337770Y46257D01*
X337865Y46288D01*
X337962Y46315D01*
X338060Y46338D01*
X338159Y46358D01*
X338259Y46373D01*
X338359Y46385D01*
X338459Y46393D01*
X338560Y46397D01*
X338660Y46397D01*
X338761Y46393D01*
X338861Y46385D01*
X338961Y46373D01*
X339061Y46358D01*
X339160Y46338D01*
X339258Y46315D01*
X339355Y46288D01*
X339450Y46257D01*
X339545Y46223D01*
X339638Y46185D01*
X339730Y46143D01*
X339820Y46098D01*
X339908Y46049D01*
X339994Y45997D01*
X340078Y45942D01*
X340160Y45883D01*
X340240Y45822D01*
X340317Y45757D01*
X340391Y45689D01*
X340463Y45619D01*
X340532Y45546D01*
X340599Y45470D01*
X340662Y45391D01*
X340722Y45311D01*
X340779Y45228D01*
X340833Y45142D01*
X340883Y45055D01*
X340930Y44966D01*
X340973Y44875D01*
X341013Y44783D01*
X341049Y44689D01*
X341082Y44594D01*
X341111Y44497D01*
X341136Y44400D01*
X341157Y44301D01*
X341175Y44202D01*
X341188Y44102D01*
X341198Y44002D01*
X341204Y43902D01*
X341206Y43801D01*
X341207Y43801D02*
X341207Y41204D01*
X341206Y41204D02*
X341204Y41103D01*
X341198Y41003D01*
X341188Y40903D01*
X341175Y40803D01*
X341157Y40704D01*
X341136Y40605D01*
X341111Y40508D01*
X341082Y40411D01*
X341049Y40316D01*
X341013Y40222D01*
X340973Y40130D01*
X340930Y40039D01*
X340883Y39950D01*
X340833Y39863D01*
X340779Y39777D01*
X340722Y39694D01*
X340662Y39614D01*
X340599Y39535D01*
X340532Y39459D01*
X340463Y39386D01*
X340391Y39316D01*
X340317Y39248D01*
X340240Y39183D01*
X340160Y39122D01*
X340078Y39063D01*
X339994Y39008D01*
X339908Y38956D01*
X339820Y38907D01*
X339730Y38862D01*
X339638Y38820D01*
X339545Y38782D01*
X339450Y38748D01*
X339355Y38717D01*
X339258Y38690D01*
X339160Y38667D01*
X339061Y38647D01*
X338961Y38632D01*
X338861Y38620D01*
X338761Y38612D01*
X338660Y38608D01*
X338560Y38608D01*
X338459Y38612D01*
X338359Y38620D01*
X338259Y38632D01*
X338159Y38647D01*
X338060Y38667D01*
X337962Y38690D01*
X337865Y38717D01*
X337770Y38748D01*
X337675Y38782D01*
X337582Y38820D01*
X337490Y38862D01*
X337400Y38907D01*
X337312Y38956D01*
X337226Y39008D01*
X337142Y39063D01*
X337060Y39122D01*
X336980Y39183D01*
X336903Y39248D01*
X336829Y39316D01*
X336757Y39386D01*
X336688Y39459D01*
X336621Y39535D01*
X336558Y39614D01*
X336498Y39694D01*
X336441Y39777D01*
X336387Y39863D01*
X336337Y39950D01*
X336290Y40039D01*
X336247Y40130D01*
X336207Y40222D01*
X336171Y40316D01*
X336138Y40411D01*
X336109Y40508D01*
X336084Y40605D01*
X336063Y40704D01*
X336045Y40803D01*
X336032Y40903D01*
X336022Y41003D01*
X336016Y41103D01*
X336014Y41204D01*
X348133Y43152D02*
X351054Y43152D01*
X348133Y43152D02*
X348039Y43150D01*
X347945Y43144D01*
X347852Y43135D01*
X347759Y43121D01*
X347667Y43104D01*
X347575Y43082D01*
X347485Y43058D01*
X347395Y43029D01*
X347307Y42997D01*
X347220Y42961D01*
X347135Y42921D01*
X347052Y42878D01*
X346970Y42832D01*
X346890Y42782D01*
X346813Y42729D01*
X346738Y42673D01*
X346665Y42614D01*
X346594Y42552D01*
X346526Y42487D01*
X346461Y42419D01*
X346399Y42348D01*
X346340Y42275D01*
X346284Y42200D01*
X346231Y42123D01*
X346181Y42043D01*
X346135Y41961D01*
X346092Y41878D01*
X346052Y41793D01*
X346016Y41706D01*
X345984Y41618D01*
X345955Y41528D01*
X345931Y41438D01*
X345909Y41346D01*
X345892Y41254D01*
X345878Y41161D01*
X345869Y41068D01*
X345863Y40974D01*
X345861Y40880D01*
X345863Y40786D01*
X345869Y40692D01*
X345878Y40599D01*
X345892Y40506D01*
X345909Y40414D01*
X345931Y40322D01*
X345955Y40232D01*
X345984Y40142D01*
X346016Y40054D01*
X346052Y39967D01*
X346092Y39882D01*
X346135Y39799D01*
X346181Y39717D01*
X346231Y39637D01*
X346284Y39560D01*
X346340Y39485D01*
X346399Y39412D01*
X346461Y39341D01*
X346526Y39273D01*
X346594Y39208D01*
X346665Y39146D01*
X346738Y39087D01*
X346813Y39031D01*
X346890Y38978D01*
X346970Y38928D01*
X347052Y38882D01*
X347135Y38839D01*
X347220Y38799D01*
X347307Y38763D01*
X347395Y38731D01*
X347485Y38702D01*
X347575Y38678D01*
X347667Y38656D01*
X347759Y38639D01*
X347852Y38625D01*
X347945Y38616D01*
X348039Y38610D01*
X348133Y38608D01*
X351054Y38608D01*
X351054Y44450D01*
X351053Y44450D02*
X351051Y44537D01*
X351045Y44625D01*
X351035Y44711D01*
X351022Y44798D01*
X351004Y44883D01*
X350983Y44968D01*
X350958Y45052D01*
X350929Y45134D01*
X350896Y45215D01*
X350860Y45295D01*
X350821Y45373D01*
X350777Y45449D01*
X350731Y45523D01*
X350681Y45594D01*
X350628Y45664D01*
X350572Y45731D01*
X350513Y45795D01*
X350451Y45857D01*
X350387Y45916D01*
X350320Y45972D01*
X350250Y46025D01*
X350179Y46075D01*
X350105Y46121D01*
X350029Y46165D01*
X349951Y46204D01*
X349871Y46240D01*
X349790Y46273D01*
X349708Y46302D01*
X349624Y46327D01*
X349539Y46348D01*
X349454Y46366D01*
X349367Y46379D01*
X349281Y46389D01*
X349193Y46395D01*
X349106Y46397D01*
X346510Y46397D01*
X356654Y46397D02*
X356654Y38608D01*
X356654Y46397D02*
X360549Y46397D01*
X360549Y45099D01*
X369342Y50292D02*
X369342Y38608D01*
X366096Y38608D01*
X366009Y38610D01*
X365921Y38616D01*
X365835Y38626D01*
X365748Y38639D01*
X365663Y38657D01*
X365578Y38678D01*
X365494Y38703D01*
X365412Y38732D01*
X365331Y38765D01*
X365251Y38801D01*
X365173Y38840D01*
X365097Y38884D01*
X365023Y38930D01*
X364952Y38980D01*
X364882Y39033D01*
X364815Y39089D01*
X364751Y39148D01*
X364689Y39210D01*
X364630Y39274D01*
X364574Y39341D01*
X364521Y39411D01*
X364471Y39482D01*
X364425Y39556D01*
X364381Y39632D01*
X364342Y39710D01*
X364306Y39790D01*
X364273Y39871D01*
X364244Y39953D01*
X364219Y40037D01*
X364198Y40122D01*
X364180Y40207D01*
X364167Y40294D01*
X364157Y40380D01*
X364151Y40468D01*
X364149Y40555D01*
X364149Y44450D01*
X364151Y44537D01*
X364157Y44625D01*
X364167Y44711D01*
X364180Y44798D01*
X364198Y44883D01*
X364219Y44968D01*
X364244Y45052D01*
X364273Y45134D01*
X364306Y45215D01*
X364342Y45295D01*
X364381Y45373D01*
X364425Y45449D01*
X364471Y45523D01*
X364521Y45594D01*
X364574Y45664D01*
X364630Y45731D01*
X364689Y45795D01*
X364751Y45857D01*
X364815Y45916D01*
X364882Y45972D01*
X364952Y46025D01*
X365023Y46075D01*
X365097Y46121D01*
X365173Y46165D01*
X365251Y46204D01*
X365331Y46240D01*
X365412Y46273D01*
X365494Y46302D01*
X365578Y46327D01*
X365663Y46348D01*
X365748Y46366D01*
X365835Y46379D01*
X365921Y46389D01*
X366009Y46395D01*
X366096Y46397D01*
X369342Y46397D01*
D12*
X607060Y44450D02*
X607070Y45292D01*
X607101Y46133D01*
X607153Y46973D01*
X607225Y47811D01*
X607318Y48647D01*
X607431Y49481D01*
X607565Y50312D01*
X607719Y51140D01*
X607893Y51963D01*
X608088Y52782D01*
X608302Y53596D01*
X608537Y54404D01*
X608791Y55206D01*
X609064Y56002D01*
X609358Y56791D01*
X609670Y57572D01*
X610002Y58346D01*
X610352Y59111D01*
X610721Y59867D01*
X611109Y60614D01*
X611515Y61351D01*
X611938Y62079D01*
X612380Y62795D01*
X612839Y63501D01*
X613315Y64194D01*
X613808Y64877D01*
X614318Y65546D01*
X614843Y66203D01*
X615385Y66847D01*
X615943Y67478D01*
X616516Y68094D01*
X617103Y68697D01*
X617706Y69284D01*
X618322Y69857D01*
X618953Y70415D01*
X619597Y70957D01*
X620254Y71482D01*
X620923Y71992D01*
X621606Y72485D01*
X622299Y72961D01*
X623005Y73420D01*
X623721Y73862D01*
X624449Y74285D01*
X625186Y74691D01*
X625933Y75079D01*
X626689Y75448D01*
X627454Y75798D01*
X628228Y76130D01*
X629009Y76442D01*
X629798Y76736D01*
X630594Y77009D01*
X631396Y77263D01*
X632204Y77498D01*
X633018Y77712D01*
X633837Y77907D01*
X634660Y78081D01*
X635488Y78235D01*
X636319Y78369D01*
X637153Y78482D01*
X637989Y78575D01*
X638827Y78647D01*
X639667Y78699D01*
X640508Y78730D01*
X641350Y78740D01*
X642192Y78730D01*
X643033Y78699D01*
X643873Y78647D01*
X644711Y78575D01*
X645547Y78482D01*
X646381Y78369D01*
X647212Y78235D01*
X648040Y78081D01*
X648863Y77907D01*
X649682Y77712D01*
X650496Y77498D01*
X651304Y77263D01*
X652106Y77009D01*
X652902Y76736D01*
X653691Y76442D01*
X654472Y76130D01*
X655246Y75798D01*
X656011Y75448D01*
X656767Y75079D01*
X657514Y74691D01*
X658251Y74285D01*
X658979Y73862D01*
X659695Y73420D01*
X660401Y72961D01*
X661094Y72485D01*
X661777Y71992D01*
X662446Y71482D01*
X663103Y70957D01*
X663747Y70415D01*
X664378Y69857D01*
X664994Y69284D01*
X665597Y68697D01*
X666184Y68094D01*
X666757Y67478D01*
X667315Y66847D01*
X667857Y66203D01*
X668382Y65546D01*
X668892Y64877D01*
X669385Y64194D01*
X669861Y63501D01*
X670320Y62795D01*
X670762Y62079D01*
X671185Y61351D01*
X671591Y60614D01*
X671979Y59867D01*
X672348Y59111D01*
X672698Y58346D01*
X673030Y57572D01*
X673342Y56791D01*
X673636Y56002D01*
X673909Y55206D01*
X674163Y54404D01*
X674398Y53596D01*
X674612Y52782D01*
X674807Y51963D01*
X674981Y51140D01*
X675135Y50312D01*
X675269Y49481D01*
X675382Y48647D01*
X675475Y47811D01*
X675547Y46973D01*
X675599Y46133D01*
X675630Y45292D01*
X675640Y44450D01*
X675630Y43608D01*
X675599Y42767D01*
X675547Y41927D01*
X675475Y41089D01*
X675382Y40253D01*
X675269Y39419D01*
X675135Y38588D01*
X674981Y37760D01*
X674807Y36937D01*
X674612Y36118D01*
X674398Y35304D01*
X674163Y34496D01*
X673909Y33694D01*
X673636Y32898D01*
X673342Y32109D01*
X673030Y31328D01*
X672698Y30554D01*
X672348Y29789D01*
X671979Y29033D01*
X671591Y28286D01*
X671185Y27549D01*
X670762Y26821D01*
X670320Y26105D01*
X669861Y25399D01*
X669385Y24706D01*
X668892Y24023D01*
X668382Y23354D01*
X667857Y22697D01*
X667315Y22053D01*
X666757Y21422D01*
X666184Y20806D01*
X665597Y20203D01*
X664994Y19616D01*
X664378Y19043D01*
X663747Y18485D01*
X663103Y17943D01*
X662446Y17418D01*
X661777Y16908D01*
X661094Y16415D01*
X660401Y15939D01*
X659695Y15480D01*
X658979Y15038D01*
X658251Y14615D01*
X657514Y14209D01*
X656767Y13821D01*
X656011Y13452D01*
X655246Y13102D01*
X654472Y12770D01*
X653691Y12458D01*
X652902Y12164D01*
X652106Y11891D01*
X651304Y11637D01*
X650496Y11402D01*
X649682Y11188D01*
X648863Y10993D01*
X648040Y10819D01*
X647212Y10665D01*
X646381Y10531D01*
X645547Y10418D01*
X644711Y10325D01*
X643873Y10253D01*
X643033Y10201D01*
X642192Y10170D01*
X641350Y10160D01*
X640508Y10170D01*
X639667Y10201D01*
X638827Y10253D01*
X637989Y10325D01*
X637153Y10418D01*
X636319Y10531D01*
X635488Y10665D01*
X634660Y10819D01*
X633837Y10993D01*
X633018Y11188D01*
X632204Y11402D01*
X631396Y11637D01*
X630594Y11891D01*
X629798Y12164D01*
X629009Y12458D01*
X628228Y12770D01*
X627454Y13102D01*
X626689Y13452D01*
X625933Y13821D01*
X625186Y14209D01*
X624449Y14615D01*
X623721Y15038D01*
X623005Y15480D01*
X622299Y15939D01*
X621606Y16415D01*
X620923Y16908D01*
X620254Y17418D01*
X619597Y17943D01*
X618953Y18485D01*
X618322Y19043D01*
X617706Y19616D01*
X617103Y20203D01*
X616516Y20806D01*
X615943Y21422D01*
X615385Y22053D01*
X614843Y22697D01*
X614318Y23354D01*
X613808Y24023D01*
X613315Y24706D01*
X612839Y25399D01*
X612380Y26105D01*
X611938Y26821D01*
X611515Y27549D01*
X611109Y28286D01*
X610721Y29033D01*
X610352Y29789D01*
X610002Y30554D01*
X609670Y31328D01*
X609358Y32109D01*
X609064Y32898D01*
X608791Y33694D01*
X608537Y34496D01*
X608302Y35304D01*
X608088Y36118D01*
X607893Y36937D01*
X607719Y37760D01*
X607565Y38588D01*
X607431Y39419D01*
X607318Y40253D01*
X607225Y41089D01*
X607153Y41927D01*
X607101Y42767D01*
X607070Y43608D01*
X607060Y44450D01*
D13*
X625350Y44450D02*
X625355Y44843D01*
X625369Y45235D01*
X625393Y45627D01*
X625427Y46018D01*
X625470Y46409D01*
X625523Y46798D01*
X625586Y47185D01*
X625657Y47571D01*
X625739Y47956D01*
X625829Y48338D01*
X625930Y48717D01*
X626039Y49095D01*
X626158Y49469D01*
X626285Y49840D01*
X626422Y50208D01*
X626568Y50573D01*
X626723Y50934D01*
X626886Y51291D01*
X627058Y51644D01*
X627239Y51992D01*
X627429Y52336D01*
X627626Y52676D01*
X627832Y53010D01*
X628046Y53339D01*
X628269Y53663D01*
X628499Y53981D01*
X628736Y54294D01*
X628982Y54600D01*
X629235Y54901D01*
X629495Y55195D01*
X629762Y55483D01*
X630036Y55764D01*
X630317Y56038D01*
X630605Y56305D01*
X630899Y56565D01*
X631200Y56818D01*
X631506Y57064D01*
X631819Y57301D01*
X632137Y57531D01*
X632461Y57754D01*
X632790Y57968D01*
X633124Y58174D01*
X633464Y58371D01*
X633808Y58561D01*
X634156Y58742D01*
X634509Y58914D01*
X634866Y59077D01*
X635227Y59232D01*
X635592Y59378D01*
X635960Y59515D01*
X636331Y59642D01*
X636705Y59761D01*
X637083Y59870D01*
X637462Y59971D01*
X637844Y60061D01*
X638229Y60143D01*
X638615Y60214D01*
X639002Y60277D01*
X639391Y60330D01*
X639782Y60373D01*
X640173Y60407D01*
X640565Y60431D01*
X640957Y60445D01*
X641350Y60450D01*
X641743Y60445D01*
X642135Y60431D01*
X642527Y60407D01*
X642918Y60373D01*
X643309Y60330D01*
X643698Y60277D01*
X644085Y60214D01*
X644471Y60143D01*
X644856Y60061D01*
X645238Y59971D01*
X645617Y59870D01*
X645995Y59761D01*
X646369Y59642D01*
X646740Y59515D01*
X647108Y59378D01*
X647473Y59232D01*
X647834Y59077D01*
X648191Y58914D01*
X648544Y58742D01*
X648892Y58561D01*
X649236Y58371D01*
X649576Y58174D01*
X649910Y57968D01*
X650239Y57754D01*
X650563Y57531D01*
X650881Y57301D01*
X651194Y57064D01*
X651500Y56818D01*
X651801Y56565D01*
X652095Y56305D01*
X652383Y56038D01*
X652664Y55764D01*
X652938Y55483D01*
X653205Y55195D01*
X653465Y54901D01*
X653718Y54600D01*
X653964Y54294D01*
X654201Y53981D01*
X654431Y53663D01*
X654654Y53339D01*
X654868Y53010D01*
X655074Y52676D01*
X655271Y52336D01*
X655461Y51992D01*
X655642Y51644D01*
X655814Y51291D01*
X655977Y50934D01*
X656132Y50573D01*
X656278Y50208D01*
X656415Y49840D01*
X656542Y49469D01*
X656661Y49095D01*
X656770Y48717D01*
X656871Y48338D01*
X656961Y47956D01*
X657043Y47571D01*
X657114Y47185D01*
X657177Y46798D01*
X657230Y46409D01*
X657273Y46018D01*
X657307Y45627D01*
X657331Y45235D01*
X657345Y44843D01*
X657350Y44450D01*
X657345Y44057D01*
X657331Y43665D01*
X657307Y43273D01*
X657273Y42882D01*
X657230Y42491D01*
X657177Y42102D01*
X657114Y41715D01*
X657043Y41329D01*
X656961Y40944D01*
X656871Y40562D01*
X656770Y40183D01*
X656661Y39805D01*
X656542Y39431D01*
X656415Y39060D01*
X656278Y38692D01*
X656132Y38327D01*
X655977Y37966D01*
X655814Y37609D01*
X655642Y37256D01*
X655461Y36908D01*
X655271Y36564D01*
X655074Y36224D01*
X654868Y35890D01*
X654654Y35561D01*
X654431Y35237D01*
X654201Y34919D01*
X653964Y34606D01*
X653718Y34300D01*
X653465Y33999D01*
X653205Y33705D01*
X652938Y33417D01*
X652664Y33136D01*
X652383Y32862D01*
X652095Y32595D01*
X651801Y32335D01*
X651500Y32082D01*
X651194Y31836D01*
X650881Y31599D01*
X650563Y31369D01*
X650239Y31146D01*
X649910Y30932D01*
X649576Y30726D01*
X649236Y30529D01*
X648892Y30339D01*
X648544Y30158D01*
X648191Y29986D01*
X647834Y29823D01*
X647473Y29668D01*
X647108Y29522D01*
X646740Y29385D01*
X646369Y29258D01*
X645995Y29139D01*
X645617Y29030D01*
X645238Y28929D01*
X644856Y28839D01*
X644471Y28757D01*
X644085Y28686D01*
X643698Y28623D01*
X643309Y28570D01*
X642918Y28527D01*
X642527Y28493D01*
X642135Y28469D01*
X641743Y28455D01*
X641350Y28450D01*
X640957Y28455D01*
X640565Y28469D01*
X640173Y28493D01*
X639782Y28527D01*
X639391Y28570D01*
X639002Y28623D01*
X638615Y28686D01*
X638229Y28757D01*
X637844Y28839D01*
X637462Y28929D01*
X637083Y29030D01*
X636705Y29139D01*
X636331Y29258D01*
X635960Y29385D01*
X635592Y29522D01*
X635227Y29668D01*
X634866Y29823D01*
X634509Y29986D01*
X634156Y30158D01*
X633808Y30339D01*
X633464Y30529D01*
X633124Y30726D01*
X632790Y30932D01*
X632461Y31146D01*
X632137Y31369D01*
X631819Y31599D01*
X631506Y31836D01*
X631200Y32082D01*
X630899Y32335D01*
X630605Y32595D01*
X630317Y32862D01*
X630036Y33136D01*
X629762Y33417D01*
X629495Y33705D01*
X629235Y33999D01*
X628982Y34300D01*
X628736Y34606D01*
X628499Y34919D01*
X628269Y35237D01*
X628046Y35561D01*
X627832Y35890D01*
X627626Y36224D01*
X627429Y36564D01*
X627239Y36908D01*
X627058Y37256D01*
X626886Y37609D01*
X626723Y37966D01*
X626568Y38327D01*
X626422Y38692D01*
X626285Y39060D01*
X626158Y39431D01*
X626039Y39805D01*
X625930Y40183D01*
X625829Y40562D01*
X625739Y40944D01*
X625657Y41329D01*
X625586Y41715D01*
X625523Y42102D01*
X625470Y42491D01*
X625427Y42882D01*
X625393Y43273D01*
X625369Y43665D01*
X625355Y44057D01*
X625350Y44450D01*
D12*
X608330Y372110D02*
X608340Y372952D01*
X608371Y373793D01*
X608423Y374633D01*
X608495Y375471D01*
X608588Y376307D01*
X608701Y377141D01*
X608835Y377972D01*
X608989Y378800D01*
X609163Y379623D01*
X609358Y380442D01*
X609572Y381256D01*
X609807Y382064D01*
X610061Y382866D01*
X610334Y383662D01*
X610628Y384451D01*
X610940Y385232D01*
X611272Y386006D01*
X611622Y386771D01*
X611991Y387527D01*
X612379Y388274D01*
X612785Y389011D01*
X613208Y389739D01*
X613650Y390455D01*
X614109Y391161D01*
X614585Y391854D01*
X615078Y392537D01*
X615588Y393206D01*
X616113Y393863D01*
X616655Y394507D01*
X617213Y395138D01*
X617786Y395754D01*
X618373Y396357D01*
X618976Y396944D01*
X619592Y397517D01*
X620223Y398075D01*
X620867Y398617D01*
X621524Y399142D01*
X622193Y399652D01*
X622876Y400145D01*
X623569Y400621D01*
X624275Y401080D01*
X624991Y401522D01*
X625719Y401945D01*
X626456Y402351D01*
X627203Y402739D01*
X627959Y403108D01*
X628724Y403458D01*
X629498Y403790D01*
X630279Y404102D01*
X631068Y404396D01*
X631864Y404669D01*
X632666Y404923D01*
X633474Y405158D01*
X634288Y405372D01*
X635107Y405567D01*
X635930Y405741D01*
X636758Y405895D01*
X637589Y406029D01*
X638423Y406142D01*
X639259Y406235D01*
X640097Y406307D01*
X640937Y406359D01*
X641778Y406390D01*
X642620Y406400D01*
X643462Y406390D01*
X644303Y406359D01*
X645143Y406307D01*
X645981Y406235D01*
X646817Y406142D01*
X647651Y406029D01*
X648482Y405895D01*
X649310Y405741D01*
X650133Y405567D01*
X650952Y405372D01*
X651766Y405158D01*
X652574Y404923D01*
X653376Y404669D01*
X654172Y404396D01*
X654961Y404102D01*
X655742Y403790D01*
X656516Y403458D01*
X657281Y403108D01*
X658037Y402739D01*
X658784Y402351D01*
X659521Y401945D01*
X660249Y401522D01*
X660965Y401080D01*
X661671Y400621D01*
X662364Y400145D01*
X663047Y399652D01*
X663716Y399142D01*
X664373Y398617D01*
X665017Y398075D01*
X665648Y397517D01*
X666264Y396944D01*
X666867Y396357D01*
X667454Y395754D01*
X668027Y395138D01*
X668585Y394507D01*
X669127Y393863D01*
X669652Y393206D01*
X670162Y392537D01*
X670655Y391854D01*
X671131Y391161D01*
X671590Y390455D01*
X672032Y389739D01*
X672455Y389011D01*
X672861Y388274D01*
X673249Y387527D01*
X673618Y386771D01*
X673968Y386006D01*
X674300Y385232D01*
X674612Y384451D01*
X674906Y383662D01*
X675179Y382866D01*
X675433Y382064D01*
X675668Y381256D01*
X675882Y380442D01*
X676077Y379623D01*
X676251Y378800D01*
X676405Y377972D01*
X676539Y377141D01*
X676652Y376307D01*
X676745Y375471D01*
X676817Y374633D01*
X676869Y373793D01*
X676900Y372952D01*
X676910Y372110D01*
X676900Y371268D01*
X676869Y370427D01*
X676817Y369587D01*
X676745Y368749D01*
X676652Y367913D01*
X676539Y367079D01*
X676405Y366248D01*
X676251Y365420D01*
X676077Y364597D01*
X675882Y363778D01*
X675668Y362964D01*
X675433Y362156D01*
X675179Y361354D01*
X674906Y360558D01*
X674612Y359769D01*
X674300Y358988D01*
X673968Y358214D01*
X673618Y357449D01*
X673249Y356693D01*
X672861Y355946D01*
X672455Y355209D01*
X672032Y354481D01*
X671590Y353765D01*
X671131Y353059D01*
X670655Y352366D01*
X670162Y351683D01*
X669652Y351014D01*
X669127Y350357D01*
X668585Y349713D01*
X668027Y349082D01*
X667454Y348466D01*
X666867Y347863D01*
X666264Y347276D01*
X665648Y346703D01*
X665017Y346145D01*
X664373Y345603D01*
X663716Y345078D01*
X663047Y344568D01*
X662364Y344075D01*
X661671Y343599D01*
X660965Y343140D01*
X660249Y342698D01*
X659521Y342275D01*
X658784Y341869D01*
X658037Y341481D01*
X657281Y341112D01*
X656516Y340762D01*
X655742Y340430D01*
X654961Y340118D01*
X654172Y339824D01*
X653376Y339551D01*
X652574Y339297D01*
X651766Y339062D01*
X650952Y338848D01*
X650133Y338653D01*
X649310Y338479D01*
X648482Y338325D01*
X647651Y338191D01*
X646817Y338078D01*
X645981Y337985D01*
X645143Y337913D01*
X644303Y337861D01*
X643462Y337830D01*
X642620Y337820D01*
X641778Y337830D01*
X640937Y337861D01*
X640097Y337913D01*
X639259Y337985D01*
X638423Y338078D01*
X637589Y338191D01*
X636758Y338325D01*
X635930Y338479D01*
X635107Y338653D01*
X634288Y338848D01*
X633474Y339062D01*
X632666Y339297D01*
X631864Y339551D01*
X631068Y339824D01*
X630279Y340118D01*
X629498Y340430D01*
X628724Y340762D01*
X627959Y341112D01*
X627203Y341481D01*
X626456Y341869D01*
X625719Y342275D01*
X624991Y342698D01*
X624275Y343140D01*
X623569Y343599D01*
X622876Y344075D01*
X622193Y344568D01*
X621524Y345078D01*
X620867Y345603D01*
X620223Y346145D01*
X619592Y346703D01*
X618976Y347276D01*
X618373Y347863D01*
X617786Y348466D01*
X617213Y349082D01*
X616655Y349713D01*
X616113Y350357D01*
X615588Y351014D01*
X615078Y351683D01*
X614585Y352366D01*
X614109Y353059D01*
X613650Y353765D01*
X613208Y354481D01*
X612785Y355209D01*
X612379Y355946D01*
X611991Y356693D01*
X611622Y357449D01*
X611272Y358214D01*
X610940Y358988D01*
X610628Y359769D01*
X610334Y360558D01*
X610061Y361354D01*
X609807Y362156D01*
X609572Y362964D01*
X609358Y363778D01*
X609163Y364597D01*
X608989Y365420D01*
X608835Y366248D01*
X608701Y367079D01*
X608588Y367913D01*
X608495Y368749D01*
X608423Y369587D01*
X608371Y370427D01*
X608340Y371268D01*
X608330Y372110D01*
D13*
X626620Y372110D02*
X626625Y372503D01*
X626639Y372895D01*
X626663Y373287D01*
X626697Y373678D01*
X626740Y374069D01*
X626793Y374458D01*
X626856Y374845D01*
X626927Y375231D01*
X627009Y375616D01*
X627099Y375998D01*
X627200Y376377D01*
X627309Y376755D01*
X627428Y377129D01*
X627555Y377500D01*
X627692Y377868D01*
X627838Y378233D01*
X627993Y378594D01*
X628156Y378951D01*
X628328Y379304D01*
X628509Y379652D01*
X628699Y379996D01*
X628896Y380336D01*
X629102Y380670D01*
X629316Y380999D01*
X629539Y381323D01*
X629769Y381641D01*
X630006Y381954D01*
X630252Y382260D01*
X630505Y382561D01*
X630765Y382855D01*
X631032Y383143D01*
X631306Y383424D01*
X631587Y383698D01*
X631875Y383965D01*
X632169Y384225D01*
X632470Y384478D01*
X632776Y384724D01*
X633089Y384961D01*
X633407Y385191D01*
X633731Y385414D01*
X634060Y385628D01*
X634394Y385834D01*
X634734Y386031D01*
X635078Y386221D01*
X635426Y386402D01*
X635779Y386574D01*
X636136Y386737D01*
X636497Y386892D01*
X636862Y387038D01*
X637230Y387175D01*
X637601Y387302D01*
X637975Y387421D01*
X638353Y387530D01*
X638732Y387631D01*
X639114Y387721D01*
X639499Y387803D01*
X639885Y387874D01*
X640272Y387937D01*
X640661Y387990D01*
X641052Y388033D01*
X641443Y388067D01*
X641835Y388091D01*
X642227Y388105D01*
X642620Y388110D01*
X643013Y388105D01*
X643405Y388091D01*
X643797Y388067D01*
X644188Y388033D01*
X644579Y387990D01*
X644968Y387937D01*
X645355Y387874D01*
X645741Y387803D01*
X646126Y387721D01*
X646508Y387631D01*
X646887Y387530D01*
X647265Y387421D01*
X647639Y387302D01*
X648010Y387175D01*
X648378Y387038D01*
X648743Y386892D01*
X649104Y386737D01*
X649461Y386574D01*
X649814Y386402D01*
X650162Y386221D01*
X650506Y386031D01*
X650846Y385834D01*
X651180Y385628D01*
X651509Y385414D01*
X651833Y385191D01*
X652151Y384961D01*
X652464Y384724D01*
X652770Y384478D01*
X653071Y384225D01*
X653365Y383965D01*
X653653Y383698D01*
X653934Y383424D01*
X654208Y383143D01*
X654475Y382855D01*
X654735Y382561D01*
X654988Y382260D01*
X655234Y381954D01*
X655471Y381641D01*
X655701Y381323D01*
X655924Y380999D01*
X656138Y380670D01*
X656344Y380336D01*
X656541Y379996D01*
X656731Y379652D01*
X656912Y379304D01*
X657084Y378951D01*
X657247Y378594D01*
X657402Y378233D01*
X657548Y377868D01*
X657685Y377500D01*
X657812Y377129D01*
X657931Y376755D01*
X658040Y376377D01*
X658141Y375998D01*
X658231Y375616D01*
X658313Y375231D01*
X658384Y374845D01*
X658447Y374458D01*
X658500Y374069D01*
X658543Y373678D01*
X658577Y373287D01*
X658601Y372895D01*
X658615Y372503D01*
X658620Y372110D01*
X658615Y371717D01*
X658601Y371325D01*
X658577Y370933D01*
X658543Y370542D01*
X658500Y370151D01*
X658447Y369762D01*
X658384Y369375D01*
X658313Y368989D01*
X658231Y368604D01*
X658141Y368222D01*
X658040Y367843D01*
X657931Y367465D01*
X657812Y367091D01*
X657685Y366720D01*
X657548Y366352D01*
X657402Y365987D01*
X657247Y365626D01*
X657084Y365269D01*
X656912Y364916D01*
X656731Y364568D01*
X656541Y364224D01*
X656344Y363884D01*
X656138Y363550D01*
X655924Y363221D01*
X655701Y362897D01*
X655471Y362579D01*
X655234Y362266D01*
X654988Y361960D01*
X654735Y361659D01*
X654475Y361365D01*
X654208Y361077D01*
X653934Y360796D01*
X653653Y360522D01*
X653365Y360255D01*
X653071Y359995D01*
X652770Y359742D01*
X652464Y359496D01*
X652151Y359259D01*
X651833Y359029D01*
X651509Y358806D01*
X651180Y358592D01*
X650846Y358386D01*
X650506Y358189D01*
X650162Y357999D01*
X649814Y357818D01*
X649461Y357646D01*
X649104Y357483D01*
X648743Y357328D01*
X648378Y357182D01*
X648010Y357045D01*
X647639Y356918D01*
X647265Y356799D01*
X646887Y356690D01*
X646508Y356589D01*
X646126Y356499D01*
X645741Y356417D01*
X645355Y356346D01*
X644968Y356283D01*
X644579Y356230D01*
X644188Y356187D01*
X643797Y356153D01*
X643405Y356129D01*
X643013Y356115D01*
X642620Y356110D01*
X642227Y356115D01*
X641835Y356129D01*
X641443Y356153D01*
X641052Y356187D01*
X640661Y356230D01*
X640272Y356283D01*
X639885Y356346D01*
X639499Y356417D01*
X639114Y356499D01*
X638732Y356589D01*
X638353Y356690D01*
X637975Y356799D01*
X637601Y356918D01*
X637230Y357045D01*
X636862Y357182D01*
X636497Y357328D01*
X636136Y357483D01*
X635779Y357646D01*
X635426Y357818D01*
X635078Y357999D01*
X634734Y358189D01*
X634394Y358386D01*
X634060Y358592D01*
X633731Y358806D01*
X633407Y359029D01*
X633089Y359259D01*
X632776Y359496D01*
X632470Y359742D01*
X632169Y359995D01*
X631875Y360255D01*
X631587Y360522D01*
X631306Y360796D01*
X631032Y361077D01*
X630765Y361365D01*
X630505Y361659D01*
X630252Y361960D01*
X630006Y362266D01*
X629769Y362579D01*
X629539Y362897D01*
X629316Y363221D01*
X629102Y363550D01*
X628896Y363884D01*
X628699Y364224D01*
X628509Y364568D01*
X628328Y364916D01*
X628156Y365269D01*
X627993Y365626D01*
X627838Y365987D01*
X627692Y366352D01*
X627555Y366720D01*
X627428Y367091D01*
X627309Y367465D01*
X627200Y367843D01*
X627099Y368222D01*
X627009Y368604D01*
X626927Y368989D01*
X626856Y369375D01*
X626793Y369762D01*
X626740Y370151D01*
X626697Y370542D01*
X626663Y370933D01*
X626639Y371325D01*
X626625Y371717D01*
X626620Y372110D01*
D12*
X10160Y43180D02*
X10170Y44022D01*
X10201Y44863D01*
X10253Y45703D01*
X10325Y46541D01*
X10418Y47377D01*
X10531Y48211D01*
X10665Y49042D01*
X10819Y49870D01*
X10993Y50693D01*
X11188Y51512D01*
X11402Y52326D01*
X11637Y53134D01*
X11891Y53936D01*
X12164Y54732D01*
X12458Y55521D01*
X12770Y56302D01*
X13102Y57076D01*
X13452Y57841D01*
X13821Y58597D01*
X14209Y59344D01*
X14615Y60081D01*
X15038Y60809D01*
X15480Y61525D01*
X15939Y62231D01*
X16415Y62924D01*
X16908Y63607D01*
X17418Y64276D01*
X17943Y64933D01*
X18485Y65577D01*
X19043Y66208D01*
X19616Y66824D01*
X20203Y67427D01*
X20806Y68014D01*
X21422Y68587D01*
X22053Y69145D01*
X22697Y69687D01*
X23354Y70212D01*
X24023Y70722D01*
X24706Y71215D01*
X25399Y71691D01*
X26105Y72150D01*
X26821Y72592D01*
X27549Y73015D01*
X28286Y73421D01*
X29033Y73809D01*
X29789Y74178D01*
X30554Y74528D01*
X31328Y74860D01*
X32109Y75172D01*
X32898Y75466D01*
X33694Y75739D01*
X34496Y75993D01*
X35304Y76228D01*
X36118Y76442D01*
X36937Y76637D01*
X37760Y76811D01*
X38588Y76965D01*
X39419Y77099D01*
X40253Y77212D01*
X41089Y77305D01*
X41927Y77377D01*
X42767Y77429D01*
X43608Y77460D01*
X44450Y77470D01*
X45292Y77460D01*
X46133Y77429D01*
X46973Y77377D01*
X47811Y77305D01*
X48647Y77212D01*
X49481Y77099D01*
X50312Y76965D01*
X51140Y76811D01*
X51963Y76637D01*
X52782Y76442D01*
X53596Y76228D01*
X54404Y75993D01*
X55206Y75739D01*
X56002Y75466D01*
X56791Y75172D01*
X57572Y74860D01*
X58346Y74528D01*
X59111Y74178D01*
X59867Y73809D01*
X60614Y73421D01*
X61351Y73015D01*
X62079Y72592D01*
X62795Y72150D01*
X63501Y71691D01*
X64194Y71215D01*
X64877Y70722D01*
X65546Y70212D01*
X66203Y69687D01*
X66847Y69145D01*
X67478Y68587D01*
X68094Y68014D01*
X68697Y67427D01*
X69284Y66824D01*
X69857Y66208D01*
X70415Y65577D01*
X70957Y64933D01*
X71482Y64276D01*
X71992Y63607D01*
X72485Y62924D01*
X72961Y62231D01*
X73420Y61525D01*
X73862Y60809D01*
X74285Y60081D01*
X74691Y59344D01*
X75079Y58597D01*
X75448Y57841D01*
X75798Y57076D01*
X76130Y56302D01*
X76442Y55521D01*
X76736Y54732D01*
X77009Y53936D01*
X77263Y53134D01*
X77498Y52326D01*
X77712Y51512D01*
X77907Y50693D01*
X78081Y49870D01*
X78235Y49042D01*
X78369Y48211D01*
X78482Y47377D01*
X78575Y46541D01*
X78647Y45703D01*
X78699Y44863D01*
X78730Y44022D01*
X78740Y43180D01*
X78730Y42338D01*
X78699Y41497D01*
X78647Y40657D01*
X78575Y39819D01*
X78482Y38983D01*
X78369Y38149D01*
X78235Y37318D01*
X78081Y36490D01*
X77907Y35667D01*
X77712Y34848D01*
X77498Y34034D01*
X77263Y33226D01*
X77009Y32424D01*
X76736Y31628D01*
X76442Y30839D01*
X76130Y30058D01*
X75798Y29284D01*
X75448Y28519D01*
X75079Y27763D01*
X74691Y27016D01*
X74285Y26279D01*
X73862Y25551D01*
X73420Y24835D01*
X72961Y24129D01*
X72485Y23436D01*
X71992Y22753D01*
X71482Y22084D01*
X70957Y21427D01*
X70415Y20783D01*
X69857Y20152D01*
X69284Y19536D01*
X68697Y18933D01*
X68094Y18346D01*
X67478Y17773D01*
X66847Y17215D01*
X66203Y16673D01*
X65546Y16148D01*
X64877Y15638D01*
X64194Y15145D01*
X63501Y14669D01*
X62795Y14210D01*
X62079Y13768D01*
X61351Y13345D01*
X60614Y12939D01*
X59867Y12551D01*
X59111Y12182D01*
X58346Y11832D01*
X57572Y11500D01*
X56791Y11188D01*
X56002Y10894D01*
X55206Y10621D01*
X54404Y10367D01*
X53596Y10132D01*
X52782Y9918D01*
X51963Y9723D01*
X51140Y9549D01*
X50312Y9395D01*
X49481Y9261D01*
X48647Y9148D01*
X47811Y9055D01*
X46973Y8983D01*
X46133Y8931D01*
X45292Y8900D01*
X44450Y8890D01*
X43608Y8900D01*
X42767Y8931D01*
X41927Y8983D01*
X41089Y9055D01*
X40253Y9148D01*
X39419Y9261D01*
X38588Y9395D01*
X37760Y9549D01*
X36937Y9723D01*
X36118Y9918D01*
X35304Y10132D01*
X34496Y10367D01*
X33694Y10621D01*
X32898Y10894D01*
X32109Y11188D01*
X31328Y11500D01*
X30554Y11832D01*
X29789Y12182D01*
X29033Y12551D01*
X28286Y12939D01*
X27549Y13345D01*
X26821Y13768D01*
X26105Y14210D01*
X25399Y14669D01*
X24706Y15145D01*
X24023Y15638D01*
X23354Y16148D01*
X22697Y16673D01*
X22053Y17215D01*
X21422Y17773D01*
X20806Y18346D01*
X20203Y18933D01*
X19616Y19536D01*
X19043Y20152D01*
X18485Y20783D01*
X17943Y21427D01*
X17418Y22084D01*
X16908Y22753D01*
X16415Y23436D01*
X15939Y24129D01*
X15480Y24835D01*
X15038Y25551D01*
X14615Y26279D01*
X14209Y27016D01*
X13821Y27763D01*
X13452Y28519D01*
X13102Y29284D01*
X12770Y30058D01*
X12458Y30839D01*
X12164Y31628D01*
X11891Y32424D01*
X11637Y33226D01*
X11402Y34034D01*
X11188Y34848D01*
X10993Y35667D01*
X10819Y36490D01*
X10665Y37318D01*
X10531Y38149D01*
X10418Y38983D01*
X10325Y39819D01*
X10253Y40657D01*
X10201Y41497D01*
X10170Y42338D01*
X10160Y43180D01*
D13*
X28450Y43180D02*
X28455Y43573D01*
X28469Y43965D01*
X28493Y44357D01*
X28527Y44748D01*
X28570Y45139D01*
X28623Y45528D01*
X28686Y45915D01*
X28757Y46301D01*
X28839Y46686D01*
X28929Y47068D01*
X29030Y47447D01*
X29139Y47825D01*
X29258Y48199D01*
X29385Y48570D01*
X29522Y48938D01*
X29668Y49303D01*
X29823Y49664D01*
X29986Y50021D01*
X30158Y50374D01*
X30339Y50722D01*
X30529Y51066D01*
X30726Y51406D01*
X30932Y51740D01*
X31146Y52069D01*
X31369Y52393D01*
X31599Y52711D01*
X31836Y53024D01*
X32082Y53330D01*
X32335Y53631D01*
X32595Y53925D01*
X32862Y54213D01*
X33136Y54494D01*
X33417Y54768D01*
X33705Y55035D01*
X33999Y55295D01*
X34300Y55548D01*
X34606Y55794D01*
X34919Y56031D01*
X35237Y56261D01*
X35561Y56484D01*
X35890Y56698D01*
X36224Y56904D01*
X36564Y57101D01*
X36908Y57291D01*
X37256Y57472D01*
X37609Y57644D01*
X37966Y57807D01*
X38327Y57962D01*
X38692Y58108D01*
X39060Y58245D01*
X39431Y58372D01*
X39805Y58491D01*
X40183Y58600D01*
X40562Y58701D01*
X40944Y58791D01*
X41329Y58873D01*
X41715Y58944D01*
X42102Y59007D01*
X42491Y59060D01*
X42882Y59103D01*
X43273Y59137D01*
X43665Y59161D01*
X44057Y59175D01*
X44450Y59180D01*
X44843Y59175D01*
X45235Y59161D01*
X45627Y59137D01*
X46018Y59103D01*
X46409Y59060D01*
X46798Y59007D01*
X47185Y58944D01*
X47571Y58873D01*
X47956Y58791D01*
X48338Y58701D01*
X48717Y58600D01*
X49095Y58491D01*
X49469Y58372D01*
X49840Y58245D01*
X50208Y58108D01*
X50573Y57962D01*
X50934Y57807D01*
X51291Y57644D01*
X51644Y57472D01*
X51992Y57291D01*
X52336Y57101D01*
X52676Y56904D01*
X53010Y56698D01*
X53339Y56484D01*
X53663Y56261D01*
X53981Y56031D01*
X54294Y55794D01*
X54600Y55548D01*
X54901Y55295D01*
X55195Y55035D01*
X55483Y54768D01*
X55764Y54494D01*
X56038Y54213D01*
X56305Y53925D01*
X56565Y53631D01*
X56818Y53330D01*
X57064Y53024D01*
X57301Y52711D01*
X57531Y52393D01*
X57754Y52069D01*
X57968Y51740D01*
X58174Y51406D01*
X58371Y51066D01*
X58561Y50722D01*
X58742Y50374D01*
X58914Y50021D01*
X59077Y49664D01*
X59232Y49303D01*
X59378Y48938D01*
X59515Y48570D01*
X59642Y48199D01*
X59761Y47825D01*
X59870Y47447D01*
X59971Y47068D01*
X60061Y46686D01*
X60143Y46301D01*
X60214Y45915D01*
X60277Y45528D01*
X60330Y45139D01*
X60373Y44748D01*
X60407Y44357D01*
X60431Y43965D01*
X60445Y43573D01*
X60450Y43180D01*
X60445Y42787D01*
X60431Y42395D01*
X60407Y42003D01*
X60373Y41612D01*
X60330Y41221D01*
X60277Y40832D01*
X60214Y40445D01*
X60143Y40059D01*
X60061Y39674D01*
X59971Y39292D01*
X59870Y38913D01*
X59761Y38535D01*
X59642Y38161D01*
X59515Y37790D01*
X59378Y37422D01*
X59232Y37057D01*
X59077Y36696D01*
X58914Y36339D01*
X58742Y35986D01*
X58561Y35638D01*
X58371Y35294D01*
X58174Y34954D01*
X57968Y34620D01*
X57754Y34291D01*
X57531Y33967D01*
X57301Y33649D01*
X57064Y33336D01*
X56818Y33030D01*
X56565Y32729D01*
X56305Y32435D01*
X56038Y32147D01*
X55764Y31866D01*
X55483Y31592D01*
X55195Y31325D01*
X54901Y31065D01*
X54600Y30812D01*
X54294Y30566D01*
X53981Y30329D01*
X53663Y30099D01*
X53339Y29876D01*
X53010Y29662D01*
X52676Y29456D01*
X52336Y29259D01*
X51992Y29069D01*
X51644Y28888D01*
X51291Y28716D01*
X50934Y28553D01*
X50573Y28398D01*
X50208Y28252D01*
X49840Y28115D01*
X49469Y27988D01*
X49095Y27869D01*
X48717Y27760D01*
X48338Y27659D01*
X47956Y27569D01*
X47571Y27487D01*
X47185Y27416D01*
X46798Y27353D01*
X46409Y27300D01*
X46018Y27257D01*
X45627Y27223D01*
X45235Y27199D01*
X44843Y27185D01*
X44450Y27180D01*
X44057Y27185D01*
X43665Y27199D01*
X43273Y27223D01*
X42882Y27257D01*
X42491Y27300D01*
X42102Y27353D01*
X41715Y27416D01*
X41329Y27487D01*
X40944Y27569D01*
X40562Y27659D01*
X40183Y27760D01*
X39805Y27869D01*
X39431Y27988D01*
X39060Y28115D01*
X38692Y28252D01*
X38327Y28398D01*
X37966Y28553D01*
X37609Y28716D01*
X37256Y28888D01*
X36908Y29069D01*
X36564Y29259D01*
X36224Y29456D01*
X35890Y29662D01*
X35561Y29876D01*
X35237Y30099D01*
X34919Y30329D01*
X34606Y30566D01*
X34300Y30812D01*
X33999Y31065D01*
X33705Y31325D01*
X33417Y31592D01*
X33136Y31866D01*
X32862Y32147D01*
X32595Y32435D01*
X32335Y32729D01*
X32082Y33030D01*
X31836Y33336D01*
X31599Y33649D01*
X31369Y33967D01*
X31146Y34291D01*
X30932Y34620D01*
X30726Y34954D01*
X30529Y35294D01*
X30339Y35638D01*
X30158Y35986D01*
X29986Y36339D01*
X29823Y36696D01*
X29668Y37057D01*
X29522Y37422D01*
X29385Y37790D01*
X29258Y38161D01*
X29139Y38535D01*
X29030Y38913D01*
X28929Y39292D01*
X28839Y39674D01*
X28757Y40059D01*
X28686Y40445D01*
X28623Y40832D01*
X28570Y41221D01*
X28527Y41612D01*
X28493Y42003D01*
X28469Y42395D01*
X28455Y42787D01*
X28450Y43180D01*
D12*
X10160Y372110D02*
X10170Y372952D01*
X10201Y373793D01*
X10253Y374633D01*
X10325Y375471D01*
X10418Y376307D01*
X10531Y377141D01*
X10665Y377972D01*
X10819Y378800D01*
X10993Y379623D01*
X11188Y380442D01*
X11402Y381256D01*
X11637Y382064D01*
X11891Y382866D01*
X12164Y383662D01*
X12458Y384451D01*
X12770Y385232D01*
X13102Y386006D01*
X13452Y386771D01*
X13821Y387527D01*
X14209Y388274D01*
X14615Y389011D01*
X15038Y389739D01*
X15480Y390455D01*
X15939Y391161D01*
X16415Y391854D01*
X16908Y392537D01*
X17418Y393206D01*
X17943Y393863D01*
X18485Y394507D01*
X19043Y395138D01*
X19616Y395754D01*
X20203Y396357D01*
X20806Y396944D01*
X21422Y397517D01*
X22053Y398075D01*
X22697Y398617D01*
X23354Y399142D01*
X24023Y399652D01*
X24706Y400145D01*
X25399Y400621D01*
X26105Y401080D01*
X26821Y401522D01*
X27549Y401945D01*
X28286Y402351D01*
X29033Y402739D01*
X29789Y403108D01*
X30554Y403458D01*
X31328Y403790D01*
X32109Y404102D01*
X32898Y404396D01*
X33694Y404669D01*
X34496Y404923D01*
X35304Y405158D01*
X36118Y405372D01*
X36937Y405567D01*
X37760Y405741D01*
X38588Y405895D01*
X39419Y406029D01*
X40253Y406142D01*
X41089Y406235D01*
X41927Y406307D01*
X42767Y406359D01*
X43608Y406390D01*
X44450Y406400D01*
X45292Y406390D01*
X46133Y406359D01*
X46973Y406307D01*
X47811Y406235D01*
X48647Y406142D01*
X49481Y406029D01*
X50312Y405895D01*
X51140Y405741D01*
X51963Y405567D01*
X52782Y405372D01*
X53596Y405158D01*
X54404Y404923D01*
X55206Y404669D01*
X56002Y404396D01*
X56791Y404102D01*
X57572Y403790D01*
X58346Y403458D01*
X59111Y403108D01*
X59867Y402739D01*
X60614Y402351D01*
X61351Y401945D01*
X62079Y401522D01*
X62795Y401080D01*
X63501Y400621D01*
X64194Y400145D01*
X64877Y399652D01*
X65546Y399142D01*
X66203Y398617D01*
X66847Y398075D01*
X67478Y397517D01*
X68094Y396944D01*
X68697Y396357D01*
X69284Y395754D01*
X69857Y395138D01*
X70415Y394507D01*
X70957Y393863D01*
X71482Y393206D01*
X71992Y392537D01*
X72485Y391854D01*
X72961Y391161D01*
X73420Y390455D01*
X73862Y389739D01*
X74285Y389011D01*
X74691Y388274D01*
X75079Y387527D01*
X75448Y386771D01*
X75798Y386006D01*
X76130Y385232D01*
X76442Y384451D01*
X76736Y383662D01*
X77009Y382866D01*
X77263Y382064D01*
X77498Y381256D01*
X77712Y380442D01*
X77907Y379623D01*
X78081Y378800D01*
X78235Y377972D01*
X78369Y377141D01*
X78482Y376307D01*
X78575Y375471D01*
X78647Y374633D01*
X78699Y373793D01*
X78730Y372952D01*
X78740Y372110D01*
X78730Y371268D01*
X78699Y370427D01*
X78647Y369587D01*
X78575Y368749D01*
X78482Y367913D01*
X78369Y367079D01*
X78235Y366248D01*
X78081Y365420D01*
X77907Y364597D01*
X77712Y363778D01*
X77498Y362964D01*
X77263Y362156D01*
X77009Y361354D01*
X76736Y360558D01*
X76442Y359769D01*
X76130Y358988D01*
X75798Y358214D01*
X75448Y357449D01*
X75079Y356693D01*
X74691Y355946D01*
X74285Y355209D01*
X73862Y354481D01*
X73420Y353765D01*
X72961Y353059D01*
X72485Y352366D01*
X71992Y351683D01*
X71482Y351014D01*
X70957Y350357D01*
X70415Y349713D01*
X69857Y349082D01*
X69284Y348466D01*
X68697Y347863D01*
X68094Y347276D01*
X67478Y346703D01*
X66847Y346145D01*
X66203Y345603D01*
X65546Y345078D01*
X64877Y344568D01*
X64194Y344075D01*
X63501Y343599D01*
X62795Y343140D01*
X62079Y342698D01*
X61351Y342275D01*
X60614Y341869D01*
X59867Y341481D01*
X59111Y341112D01*
X58346Y340762D01*
X57572Y340430D01*
X56791Y340118D01*
X56002Y339824D01*
X55206Y339551D01*
X54404Y339297D01*
X53596Y339062D01*
X52782Y338848D01*
X51963Y338653D01*
X51140Y338479D01*
X50312Y338325D01*
X49481Y338191D01*
X48647Y338078D01*
X47811Y337985D01*
X46973Y337913D01*
X46133Y337861D01*
X45292Y337830D01*
X44450Y337820D01*
X43608Y337830D01*
X42767Y337861D01*
X41927Y337913D01*
X41089Y337985D01*
X40253Y338078D01*
X39419Y338191D01*
X38588Y338325D01*
X37760Y338479D01*
X36937Y338653D01*
X36118Y338848D01*
X35304Y339062D01*
X34496Y339297D01*
X33694Y339551D01*
X32898Y339824D01*
X32109Y340118D01*
X31328Y340430D01*
X30554Y340762D01*
X29789Y341112D01*
X29033Y341481D01*
X28286Y341869D01*
X27549Y342275D01*
X26821Y342698D01*
X26105Y343140D01*
X25399Y343599D01*
X24706Y344075D01*
X24023Y344568D01*
X23354Y345078D01*
X22697Y345603D01*
X22053Y346145D01*
X21422Y346703D01*
X20806Y347276D01*
X20203Y347863D01*
X19616Y348466D01*
X19043Y349082D01*
X18485Y349713D01*
X17943Y350357D01*
X17418Y351014D01*
X16908Y351683D01*
X16415Y352366D01*
X15939Y353059D01*
X15480Y353765D01*
X15038Y354481D01*
X14615Y355209D01*
X14209Y355946D01*
X13821Y356693D01*
X13452Y357449D01*
X13102Y358214D01*
X12770Y358988D01*
X12458Y359769D01*
X12164Y360558D01*
X11891Y361354D01*
X11637Y362156D01*
X11402Y362964D01*
X11188Y363778D01*
X10993Y364597D01*
X10819Y365420D01*
X10665Y366248D01*
X10531Y367079D01*
X10418Y367913D01*
X10325Y368749D01*
X10253Y369587D01*
X10201Y370427D01*
X10170Y371268D01*
X10160Y372110D01*
D13*
X28450Y372110D02*
X28455Y372503D01*
X28469Y372895D01*
X28493Y373287D01*
X28527Y373678D01*
X28570Y374069D01*
X28623Y374458D01*
X28686Y374845D01*
X28757Y375231D01*
X28839Y375616D01*
X28929Y375998D01*
X29030Y376377D01*
X29139Y376755D01*
X29258Y377129D01*
X29385Y377500D01*
X29522Y377868D01*
X29668Y378233D01*
X29823Y378594D01*
X29986Y378951D01*
X30158Y379304D01*
X30339Y379652D01*
X30529Y379996D01*
X30726Y380336D01*
X30932Y380670D01*
X31146Y380999D01*
X31369Y381323D01*
X31599Y381641D01*
X31836Y381954D01*
X32082Y382260D01*
X32335Y382561D01*
X32595Y382855D01*
X32862Y383143D01*
X33136Y383424D01*
X33417Y383698D01*
X33705Y383965D01*
X33999Y384225D01*
X34300Y384478D01*
X34606Y384724D01*
X34919Y384961D01*
X35237Y385191D01*
X35561Y385414D01*
X35890Y385628D01*
X36224Y385834D01*
X36564Y386031D01*
X36908Y386221D01*
X37256Y386402D01*
X37609Y386574D01*
X37966Y386737D01*
X38327Y386892D01*
X38692Y387038D01*
X39060Y387175D01*
X39431Y387302D01*
X39805Y387421D01*
X40183Y387530D01*
X40562Y387631D01*
X40944Y387721D01*
X41329Y387803D01*
X41715Y387874D01*
X42102Y387937D01*
X42491Y387990D01*
X42882Y388033D01*
X43273Y388067D01*
X43665Y388091D01*
X44057Y388105D01*
X44450Y388110D01*
X44843Y388105D01*
X45235Y388091D01*
X45627Y388067D01*
X46018Y388033D01*
X46409Y387990D01*
X46798Y387937D01*
X47185Y387874D01*
X47571Y387803D01*
X47956Y387721D01*
X48338Y387631D01*
X48717Y387530D01*
X49095Y387421D01*
X49469Y387302D01*
X49840Y387175D01*
X50208Y387038D01*
X50573Y386892D01*
X50934Y386737D01*
X51291Y386574D01*
X51644Y386402D01*
X51992Y386221D01*
X52336Y386031D01*
X52676Y385834D01*
X53010Y385628D01*
X53339Y385414D01*
X53663Y385191D01*
X53981Y384961D01*
X54294Y384724D01*
X54600Y384478D01*
X54901Y384225D01*
X55195Y383965D01*
X55483Y383698D01*
X55764Y383424D01*
X56038Y383143D01*
X56305Y382855D01*
X56565Y382561D01*
X56818Y382260D01*
X57064Y381954D01*
X57301Y381641D01*
X57531Y381323D01*
X57754Y380999D01*
X57968Y380670D01*
X58174Y380336D01*
X58371Y379996D01*
X58561Y379652D01*
X58742Y379304D01*
X58914Y378951D01*
X59077Y378594D01*
X59232Y378233D01*
X59378Y377868D01*
X59515Y377500D01*
X59642Y377129D01*
X59761Y376755D01*
X59870Y376377D01*
X59971Y375998D01*
X60061Y375616D01*
X60143Y375231D01*
X60214Y374845D01*
X60277Y374458D01*
X60330Y374069D01*
X60373Y373678D01*
X60407Y373287D01*
X60431Y372895D01*
X60445Y372503D01*
X60450Y372110D01*
X60445Y371717D01*
X60431Y371325D01*
X60407Y370933D01*
X60373Y370542D01*
X60330Y370151D01*
X60277Y369762D01*
X60214Y369375D01*
X60143Y368989D01*
X60061Y368604D01*
X59971Y368222D01*
X59870Y367843D01*
X59761Y367465D01*
X59642Y367091D01*
X59515Y366720D01*
X59378Y366352D01*
X59232Y365987D01*
X59077Y365626D01*
X58914Y365269D01*
X58742Y364916D01*
X58561Y364568D01*
X58371Y364224D01*
X58174Y363884D01*
X57968Y363550D01*
X57754Y363221D01*
X57531Y362897D01*
X57301Y362579D01*
X57064Y362266D01*
X56818Y361960D01*
X56565Y361659D01*
X56305Y361365D01*
X56038Y361077D01*
X55764Y360796D01*
X55483Y360522D01*
X55195Y360255D01*
X54901Y359995D01*
X54600Y359742D01*
X54294Y359496D01*
X53981Y359259D01*
X53663Y359029D01*
X53339Y358806D01*
X53010Y358592D01*
X52676Y358386D01*
X52336Y358189D01*
X51992Y357999D01*
X51644Y357818D01*
X51291Y357646D01*
X50934Y357483D01*
X50573Y357328D01*
X50208Y357182D01*
X49840Y357045D01*
X49469Y356918D01*
X49095Y356799D01*
X48717Y356690D01*
X48338Y356589D01*
X47956Y356499D01*
X47571Y356417D01*
X47185Y356346D01*
X46798Y356283D01*
X46409Y356230D01*
X46018Y356187D01*
X45627Y356153D01*
X45235Y356129D01*
X44843Y356115D01*
X44450Y356110D01*
X44057Y356115D01*
X43665Y356129D01*
X43273Y356153D01*
X42882Y356187D01*
X42491Y356230D01*
X42102Y356283D01*
X41715Y356346D01*
X41329Y356417D01*
X40944Y356499D01*
X40562Y356589D01*
X40183Y356690D01*
X39805Y356799D01*
X39431Y356918D01*
X39060Y357045D01*
X38692Y357182D01*
X38327Y357328D01*
X37966Y357483D01*
X37609Y357646D01*
X37256Y357818D01*
X36908Y357999D01*
X36564Y358189D01*
X36224Y358386D01*
X35890Y358592D01*
X35561Y358806D01*
X35237Y359029D01*
X34919Y359259D01*
X34606Y359496D01*
X34300Y359742D01*
X33999Y359995D01*
X33705Y360255D01*
X33417Y360522D01*
X33136Y360796D01*
X32862Y361077D01*
X32595Y361365D01*
X32335Y361659D01*
X32082Y361960D01*
X31836Y362266D01*
X31599Y362579D01*
X31369Y362897D01*
X31146Y363221D01*
X30932Y363550D01*
X30726Y363884D01*
X30529Y364224D01*
X30339Y364568D01*
X30158Y364916D01*
X29986Y365269D01*
X29823Y365626D01*
X29668Y365987D01*
X29522Y366352D01*
X29385Y366720D01*
X29258Y367091D01*
X29139Y367465D01*
X29030Y367843D01*
X28929Y368222D01*
X28839Y368604D01*
X28757Y368989D01*
X28686Y369375D01*
X28623Y369762D01*
X28570Y370151D01*
X28527Y370542D01*
X28493Y370933D01*
X28469Y371325D01*
X28455Y371717D01*
X28450Y372110D01*
D12*
X62230Y135890D02*
X62230Y129540D01*
X55880Y129540D01*
X30480Y129540D02*
X24130Y129540D01*
X24130Y135890D01*
X24130Y161290D02*
X24130Y167640D01*
X30480Y167640D01*
X55880Y167640D02*
X62230Y167640D01*
X62230Y161290D01*
D14*
X34925Y106045D02*
X31115Y94615D01*
X38735Y94615D02*
X34925Y106045D01*
X37783Y97473D02*
X32068Y97473D01*
X45683Y94615D02*
X48223Y94615D01*
X45683Y94615D02*
X45583Y94617D01*
X45484Y94623D01*
X45384Y94633D01*
X45286Y94646D01*
X45187Y94664D01*
X45090Y94685D01*
X44994Y94710D01*
X44898Y94739D01*
X44804Y94772D01*
X44711Y94808D01*
X44620Y94848D01*
X44530Y94892D01*
X44442Y94939D01*
X44356Y94989D01*
X44272Y95043D01*
X44190Y95100D01*
X44111Y95160D01*
X44033Y95224D01*
X43959Y95290D01*
X43887Y95359D01*
X43818Y95431D01*
X43752Y95505D01*
X43688Y95583D01*
X43628Y95662D01*
X43571Y95744D01*
X43517Y95828D01*
X43467Y95914D01*
X43420Y96002D01*
X43376Y96092D01*
X43336Y96183D01*
X43300Y96276D01*
X43267Y96370D01*
X43238Y96466D01*
X43213Y96562D01*
X43192Y96659D01*
X43174Y96758D01*
X43161Y96856D01*
X43151Y96956D01*
X43145Y97055D01*
X43143Y97155D01*
X43143Y103505D01*
X43145Y103605D01*
X43151Y103704D01*
X43161Y103804D01*
X43174Y103902D01*
X43192Y104001D01*
X43213Y104098D01*
X43238Y104194D01*
X43267Y104290D01*
X43300Y104384D01*
X43336Y104477D01*
X43376Y104568D01*
X43420Y104658D01*
X43467Y104746D01*
X43517Y104832D01*
X43571Y104916D01*
X43628Y104998D01*
X43688Y105077D01*
X43752Y105155D01*
X43818Y105229D01*
X43887Y105301D01*
X43959Y105370D01*
X44033Y105436D01*
X44111Y105500D01*
X44190Y105560D01*
X44272Y105617D01*
X44356Y105671D01*
X44442Y105721D01*
X44530Y105768D01*
X44620Y105812D01*
X44711Y105852D01*
X44804Y105888D01*
X44898Y105921D01*
X44994Y105950D01*
X45090Y105975D01*
X45187Y105996D01*
X45286Y106014D01*
X45384Y106027D01*
X45484Y106037D01*
X45583Y106043D01*
X45683Y106045D01*
X48223Y106045D01*
X56197Y106046D02*
X56301Y106044D01*
X56406Y106038D01*
X56510Y106029D01*
X56613Y106016D01*
X56716Y105998D01*
X56818Y105978D01*
X56920Y105953D01*
X57020Y105925D01*
X57120Y105893D01*
X57218Y105857D01*
X57315Y105818D01*
X57410Y105776D01*
X57504Y105730D01*
X57596Y105680D01*
X57686Y105628D01*
X57774Y105572D01*
X57860Y105512D01*
X57944Y105450D01*
X58025Y105385D01*
X58104Y105317D01*
X58181Y105245D01*
X58254Y105172D01*
X58326Y105095D01*
X58394Y105016D01*
X58459Y104935D01*
X58521Y104851D01*
X58581Y104765D01*
X58637Y104677D01*
X58689Y104587D01*
X58739Y104495D01*
X58785Y104401D01*
X58827Y104306D01*
X58866Y104209D01*
X58902Y104111D01*
X58934Y104011D01*
X58962Y103911D01*
X58987Y103809D01*
X59007Y103707D01*
X59025Y103604D01*
X59038Y103501D01*
X59047Y103397D01*
X59053Y103292D01*
X59055Y103188D01*
X56197Y106045D02*
X56079Y106043D01*
X55960Y106037D01*
X55842Y106028D01*
X55725Y106015D01*
X55608Y105997D01*
X55491Y105977D01*
X55375Y105952D01*
X55260Y105924D01*
X55147Y105891D01*
X55034Y105856D01*
X54922Y105816D01*
X54812Y105774D01*
X54703Y105727D01*
X54595Y105677D01*
X54490Y105624D01*
X54386Y105567D01*
X54284Y105507D01*
X54184Y105444D01*
X54086Y105377D01*
X53990Y105308D01*
X53897Y105235D01*
X53806Y105159D01*
X53717Y105081D01*
X53631Y104999D01*
X53548Y104915D01*
X53467Y104829D01*
X53390Y104739D01*
X53315Y104648D01*
X53243Y104554D01*
X53174Y104457D01*
X53109Y104359D01*
X53046Y104258D01*
X52987Y104155D01*
X52931Y104051D01*
X52879Y103945D01*
X52830Y103837D01*
X52785Y103728D01*
X52743Y103617D01*
X52705Y103505D01*
X58103Y100966D02*
X58179Y101041D01*
X58254Y101120D01*
X58325Y101201D01*
X58394Y101285D01*
X58459Y101371D01*
X58521Y101459D01*
X58581Y101549D01*
X58637Y101641D01*
X58690Y101736D01*
X58739Y101832D01*
X58785Y101930D01*
X58828Y102029D01*
X58867Y102130D01*
X58902Y102232D01*
X58934Y102335D01*
X58962Y102439D01*
X58987Y102544D01*
X59008Y102651D01*
X59025Y102757D01*
X59038Y102864D01*
X59047Y102972D01*
X59053Y103080D01*
X59055Y103188D01*
X58102Y100965D02*
X52705Y94615D01*
X59055Y94615D01*
D12*
X62230Y237490D02*
X62230Y243840D01*
X62230Y237490D02*
X55880Y237490D01*
X30480Y237490D02*
X24130Y237490D01*
X24130Y243840D01*
X24130Y269240D02*
X24130Y275590D01*
X30480Y275590D01*
X55880Y275590D02*
X62230Y275590D01*
X62230Y269240D01*
D14*
X31115Y299085D02*
X34925Y310515D01*
X38735Y299085D01*
X37783Y301943D02*
X32068Y301943D01*
X45683Y299085D02*
X48223Y299085D01*
X45683Y299085D02*
X45583Y299087D01*
X45484Y299093D01*
X45384Y299103D01*
X45286Y299116D01*
X45187Y299134D01*
X45090Y299155D01*
X44994Y299180D01*
X44898Y299209D01*
X44804Y299242D01*
X44711Y299278D01*
X44620Y299318D01*
X44530Y299362D01*
X44442Y299409D01*
X44356Y299459D01*
X44272Y299513D01*
X44190Y299570D01*
X44111Y299630D01*
X44033Y299694D01*
X43959Y299760D01*
X43887Y299829D01*
X43818Y299901D01*
X43752Y299975D01*
X43688Y300053D01*
X43628Y300132D01*
X43571Y300214D01*
X43517Y300298D01*
X43467Y300384D01*
X43420Y300472D01*
X43376Y300562D01*
X43336Y300653D01*
X43300Y300746D01*
X43267Y300840D01*
X43238Y300936D01*
X43213Y301032D01*
X43192Y301129D01*
X43174Y301228D01*
X43161Y301326D01*
X43151Y301426D01*
X43145Y301525D01*
X43143Y301625D01*
X43143Y307975D01*
X43145Y308075D01*
X43151Y308174D01*
X43161Y308274D01*
X43174Y308372D01*
X43192Y308471D01*
X43213Y308568D01*
X43238Y308664D01*
X43267Y308760D01*
X43300Y308854D01*
X43336Y308947D01*
X43376Y309038D01*
X43420Y309128D01*
X43467Y309216D01*
X43517Y309302D01*
X43571Y309386D01*
X43628Y309468D01*
X43688Y309547D01*
X43752Y309625D01*
X43818Y309699D01*
X43887Y309771D01*
X43959Y309840D01*
X44033Y309906D01*
X44111Y309970D01*
X44190Y310030D01*
X44272Y310087D01*
X44356Y310141D01*
X44442Y310191D01*
X44530Y310238D01*
X44620Y310282D01*
X44711Y310322D01*
X44804Y310358D01*
X44898Y310391D01*
X44994Y310420D01*
X45090Y310445D01*
X45187Y310466D01*
X45286Y310484D01*
X45384Y310497D01*
X45484Y310507D01*
X45583Y310513D01*
X45683Y310515D01*
X48223Y310515D01*
X52705Y307975D02*
X55880Y310515D01*
X55880Y299085D01*
X52705Y299085D02*
X59055Y299085D01*
D12*
X654050Y215900D02*
X654050Y209550D01*
X647700Y209550D01*
X622300Y209550D02*
X615950Y209550D01*
X615950Y215900D01*
X615950Y241300D02*
X615950Y247650D01*
X622300Y247650D01*
X647700Y247650D02*
X654050Y247650D01*
X654050Y241300D01*
D14*
X628015Y271780D02*
X620395Y271780D01*
X624205Y267970D02*
X624205Y275590D01*
X633222Y267335D02*
X637032Y267335D01*
X637132Y267337D01*
X637231Y267343D01*
X637331Y267353D01*
X637429Y267366D01*
X637528Y267384D01*
X637625Y267405D01*
X637721Y267430D01*
X637817Y267459D01*
X637911Y267492D01*
X638004Y267528D01*
X638095Y267568D01*
X638185Y267612D01*
X638273Y267659D01*
X638359Y267709D01*
X638443Y267763D01*
X638525Y267820D01*
X638604Y267880D01*
X638682Y267944D01*
X638756Y268010D01*
X638828Y268079D01*
X638897Y268151D01*
X638963Y268225D01*
X639027Y268303D01*
X639087Y268382D01*
X639144Y268464D01*
X639198Y268548D01*
X639248Y268634D01*
X639295Y268722D01*
X639339Y268812D01*
X639379Y268903D01*
X639415Y268996D01*
X639448Y269090D01*
X639477Y269186D01*
X639502Y269282D01*
X639523Y269379D01*
X639541Y269478D01*
X639554Y269576D01*
X639564Y269676D01*
X639570Y269775D01*
X639572Y269875D01*
X639572Y271145D01*
X639570Y271245D01*
X639564Y271344D01*
X639554Y271444D01*
X639541Y271542D01*
X639523Y271641D01*
X639502Y271738D01*
X639477Y271834D01*
X639448Y271930D01*
X639415Y272024D01*
X639379Y272117D01*
X639339Y272208D01*
X639295Y272298D01*
X639248Y272386D01*
X639198Y272472D01*
X639144Y272556D01*
X639087Y272638D01*
X639027Y272717D01*
X638963Y272795D01*
X638897Y272869D01*
X638828Y272941D01*
X638756Y273010D01*
X638682Y273076D01*
X638604Y273140D01*
X638525Y273200D01*
X638443Y273257D01*
X638359Y273311D01*
X638273Y273361D01*
X638185Y273408D01*
X638095Y273452D01*
X638004Y273492D01*
X637911Y273528D01*
X637817Y273561D01*
X637721Y273590D01*
X637625Y273615D01*
X637528Y273636D01*
X637429Y273654D01*
X637331Y273667D01*
X637231Y273677D01*
X637132Y273683D01*
X637032Y273685D01*
X633222Y273685D01*
X633222Y278765D01*
X639572Y278765D01*
X644017Y278765D02*
X647827Y267335D01*
X651637Y278765D01*
D12*
X654050Y135890D02*
X654050Y129540D01*
X647700Y129540D01*
X622300Y129540D02*
X615950Y129540D01*
X615950Y135890D01*
X615950Y161290D02*
X615950Y167640D01*
X622300Y167640D01*
X647700Y167640D02*
X654050Y167640D01*
X654050Y161290D01*
D14*
X628015Y102235D02*
X626110Y102235D01*
X628015Y102235D02*
X628015Y95885D01*
X624205Y95885D01*
X624105Y95887D01*
X624006Y95893D01*
X623906Y95903D01*
X623808Y95916D01*
X623709Y95934D01*
X623612Y95955D01*
X623516Y95980D01*
X623420Y96009D01*
X623326Y96042D01*
X623233Y96078D01*
X623142Y96118D01*
X623052Y96162D01*
X622964Y96209D01*
X622878Y96259D01*
X622794Y96313D01*
X622712Y96370D01*
X622633Y96430D01*
X622555Y96494D01*
X622481Y96560D01*
X622409Y96629D01*
X622340Y96701D01*
X622274Y96775D01*
X622210Y96853D01*
X622150Y96932D01*
X622093Y97014D01*
X622039Y97098D01*
X621989Y97184D01*
X621942Y97272D01*
X621898Y97362D01*
X621858Y97453D01*
X621822Y97546D01*
X621789Y97640D01*
X621760Y97736D01*
X621735Y97832D01*
X621714Y97929D01*
X621696Y98028D01*
X621683Y98126D01*
X621673Y98226D01*
X621667Y98325D01*
X621665Y98425D01*
X621665Y104775D01*
X621667Y104875D01*
X621673Y104974D01*
X621683Y105074D01*
X621696Y105172D01*
X621714Y105271D01*
X621735Y105368D01*
X621760Y105464D01*
X621789Y105560D01*
X621822Y105654D01*
X621858Y105747D01*
X621898Y105838D01*
X621942Y105928D01*
X621989Y106016D01*
X622039Y106102D01*
X622093Y106186D01*
X622150Y106268D01*
X622210Y106347D01*
X622274Y106425D01*
X622340Y106499D01*
X622409Y106571D01*
X622481Y106640D01*
X622555Y106706D01*
X622633Y106770D01*
X622712Y106830D01*
X622794Y106887D01*
X622878Y106941D01*
X622964Y106991D01*
X623052Y107038D01*
X623142Y107082D01*
X623233Y107122D01*
X623326Y107158D01*
X623420Y107191D01*
X623516Y107220D01*
X623612Y107245D01*
X623709Y107266D01*
X623808Y107284D01*
X623906Y107297D01*
X624006Y107307D01*
X624105Y107313D01*
X624205Y107315D01*
X628015Y107315D01*
X633857Y107315D02*
X633857Y95885D01*
X640207Y95885D02*
X633857Y107315D01*
X640207Y107315D02*
X640207Y95885D01*
X646049Y95885D02*
X646049Y107315D01*
X649224Y107315D01*
X649335Y107313D01*
X649445Y107307D01*
X649556Y107298D01*
X649666Y107284D01*
X649775Y107267D01*
X649884Y107246D01*
X649992Y107221D01*
X650099Y107192D01*
X650205Y107160D01*
X650310Y107124D01*
X650413Y107084D01*
X650515Y107041D01*
X650616Y106994D01*
X650715Y106943D01*
X650812Y106890D01*
X650906Y106833D01*
X650999Y106772D01*
X651090Y106709D01*
X651179Y106642D01*
X651265Y106572D01*
X651348Y106499D01*
X651430Y106424D01*
X651508Y106346D01*
X651583Y106264D01*
X651656Y106181D01*
X651726Y106095D01*
X651793Y106006D01*
X651856Y105915D01*
X651917Y105822D01*
X651974Y105728D01*
X652027Y105631D01*
X652078Y105532D01*
X652125Y105431D01*
X652168Y105329D01*
X652208Y105226D01*
X652244Y105121D01*
X652276Y105015D01*
X652305Y104908D01*
X652330Y104800D01*
X652351Y104691D01*
X652368Y104582D01*
X652382Y104472D01*
X652391Y104361D01*
X652397Y104251D01*
X652399Y104140D01*
X652399Y99060D01*
X652397Y98949D01*
X652391Y98839D01*
X652382Y98728D01*
X652368Y98618D01*
X652351Y98509D01*
X652330Y98400D01*
X652305Y98292D01*
X652276Y98185D01*
X652244Y98079D01*
X652208Y97974D01*
X652168Y97871D01*
X652125Y97769D01*
X652078Y97668D01*
X652027Y97569D01*
X651974Y97472D01*
X651917Y97378D01*
X651856Y97285D01*
X651793Y97194D01*
X651726Y97105D01*
X651656Y97019D01*
X651583Y96936D01*
X651508Y96854D01*
X651430Y96776D01*
X651348Y96701D01*
X651265Y96628D01*
X651179Y96558D01*
X651090Y96491D01*
X650999Y96428D01*
X650906Y96367D01*
X650812Y96310D01*
X650715Y96257D01*
X650616Y96206D01*
X650515Y96159D01*
X650413Y96116D01*
X650310Y96076D01*
X650205Y96040D01*
X650099Y96008D01*
X649992Y95979D01*
X649884Y95954D01*
X649775Y95933D01*
X649666Y95916D01*
X649556Y95902D01*
X649445Y95893D01*
X649335Y95887D01*
X649224Y95885D01*
X646049Y95885D01*
X114400Y114300D02*
X114400Y368300D01*
X571400Y368300D01*
X571400Y114300D01*
X114400Y114300D01*
D11*
X119787Y378465D02*
X119787Y386913D01*
X119787Y378465D02*
X119789Y378353D01*
X119795Y378241D01*
X119804Y378129D01*
X119818Y378018D01*
X119835Y377907D01*
X119856Y377797D01*
X119881Y377687D01*
X119910Y377579D01*
X119943Y377472D01*
X119979Y377365D01*
X120018Y377261D01*
X120062Y377157D01*
X120109Y377055D01*
X120159Y376955D01*
X120213Y376857D01*
X120270Y376760D01*
X120331Y376666D01*
X120394Y376573D01*
X120461Y376483D01*
X120531Y376396D01*
X120604Y376311D01*
X120680Y376228D01*
X120759Y376148D01*
X120840Y376071D01*
X120924Y375996D01*
X121010Y375925D01*
X121099Y375856D01*
X121190Y375791D01*
X121284Y375729D01*
X121379Y375670D01*
X121477Y375615D01*
X121576Y375563D01*
X121677Y375514D01*
X121780Y375469D01*
X121884Y375427D01*
X121989Y375389D01*
X122096Y375355D01*
X122204Y375324D01*
X122313Y375297D01*
X122423Y375274D01*
X122533Y375255D01*
X122644Y375240D01*
X122756Y375228D01*
X122868Y375220D01*
X122980Y375216D01*
X123092Y375216D01*
X123204Y375220D01*
X123316Y375228D01*
X123428Y375240D01*
X123539Y375255D01*
X123649Y375274D01*
X123759Y375297D01*
X123868Y375324D01*
X123976Y375355D01*
X124083Y375389D01*
X124188Y375427D01*
X124292Y375469D01*
X124395Y375514D01*
X124496Y375563D01*
X124595Y375615D01*
X124693Y375670D01*
X124788Y375729D01*
X124882Y375791D01*
X124973Y375856D01*
X125062Y375925D01*
X125148Y375996D01*
X125232Y376071D01*
X125313Y376148D01*
X125392Y376228D01*
X125468Y376311D01*
X125541Y376396D01*
X125611Y376483D01*
X125678Y376573D01*
X125741Y376666D01*
X125802Y376760D01*
X125859Y376857D01*
X125913Y376955D01*
X125963Y377055D01*
X126010Y377157D01*
X126054Y377261D01*
X126093Y377365D01*
X126129Y377472D01*
X126162Y377579D01*
X126191Y377687D01*
X126216Y377797D01*
X126237Y377907D01*
X126254Y378018D01*
X126268Y378129D01*
X126277Y378241D01*
X126283Y378353D01*
X126285Y378465D01*
X126285Y386913D01*
X131610Y384314D02*
X134859Y386913D01*
X134859Y375216D01*
X131610Y375216D02*
X138109Y375216D01*
X476931Y374502D02*
X476931Y386201D01*
X475631Y374502D02*
X478231Y374502D01*
X478231Y386201D02*
X475631Y386201D01*
X483291Y386201D02*
X483291Y374502D01*
X483291Y386201D02*
X486540Y386201D01*
X486652Y386199D01*
X486764Y386193D01*
X486876Y386184D01*
X486987Y386170D01*
X487098Y386153D01*
X487208Y386132D01*
X487318Y386107D01*
X487426Y386078D01*
X487534Y386045D01*
X487640Y386009D01*
X487745Y385969D01*
X487848Y385926D01*
X487950Y385879D01*
X488050Y385829D01*
X488149Y385775D01*
X488245Y385718D01*
X488340Y385657D01*
X488432Y385593D01*
X488522Y385527D01*
X488610Y385457D01*
X488695Y385384D01*
X488778Y385308D01*
X488858Y385229D01*
X488935Y385148D01*
X489009Y385064D01*
X489081Y384977D01*
X489149Y384888D01*
X489215Y384797D01*
X489277Y384704D01*
X489336Y384608D01*
X489391Y384511D01*
X489443Y384411D01*
X489492Y384310D01*
X489537Y384208D01*
X489579Y384103D01*
X489617Y383998D01*
X489651Y383891D01*
X489682Y383783D01*
X489709Y383674D01*
X489732Y383564D01*
X489751Y383454D01*
X489766Y383343D01*
X489778Y383231D01*
X489786Y383119D01*
X489790Y383007D01*
X489790Y382895D01*
X489786Y382783D01*
X489778Y382671D01*
X489766Y382559D01*
X489751Y382448D01*
X489732Y382338D01*
X489709Y382228D01*
X489682Y382119D01*
X489651Y382011D01*
X489617Y381904D01*
X489579Y381799D01*
X489537Y381694D01*
X489492Y381592D01*
X489443Y381491D01*
X489391Y381391D01*
X489336Y381294D01*
X489277Y381198D01*
X489215Y381105D01*
X489149Y381014D01*
X489081Y380925D01*
X489009Y380838D01*
X488935Y380754D01*
X488858Y380673D01*
X488778Y380594D01*
X488695Y380518D01*
X488610Y380445D01*
X488522Y380375D01*
X488432Y380309D01*
X488340Y380245D01*
X488245Y380184D01*
X488149Y380127D01*
X488050Y380073D01*
X487950Y380023D01*
X487848Y379976D01*
X487745Y379933D01*
X487640Y379893D01*
X487534Y379857D01*
X487426Y379824D01*
X487318Y379795D01*
X487208Y379770D01*
X487098Y379749D01*
X486987Y379732D01*
X486876Y379718D01*
X486764Y379709D01*
X486652Y379703D01*
X486540Y379701D01*
X483291Y379701D01*
X487190Y379701D02*
X489790Y374502D01*
X495155Y374502D02*
X495155Y386201D01*
X499054Y379701D01*
X502954Y386201D01*
X502954Y374502D01*
X508505Y379051D02*
X516304Y379051D01*
X521361Y380351D02*
X521364Y380581D01*
X521372Y380811D01*
X521386Y381041D01*
X521405Y381270D01*
X521430Y381499D01*
X521460Y381727D01*
X521495Y381955D01*
X521536Y382181D01*
X521583Y382407D01*
X521634Y382631D01*
X521692Y382854D01*
X521754Y383075D01*
X521822Y383295D01*
X521894Y383514D01*
X521973Y383730D01*
X522056Y383945D01*
X522144Y384157D01*
X522238Y384368D01*
X522336Y384576D01*
X522335Y384576D02*
X522368Y384666D01*
X522405Y384755D01*
X522445Y384843D01*
X522488Y384929D01*
X522535Y385013D01*
X522586Y385095D01*
X522639Y385175D01*
X522696Y385252D01*
X522756Y385328D01*
X522819Y385401D01*
X522884Y385471D01*
X522953Y385539D01*
X523024Y385604D01*
X523097Y385666D01*
X523173Y385725D01*
X523252Y385781D01*
X523332Y385833D01*
X523415Y385883D01*
X523499Y385929D01*
X523585Y385972D01*
X523673Y386011D01*
X523762Y386047D01*
X523853Y386079D01*
X523945Y386107D01*
X524038Y386132D01*
X524132Y386153D01*
X524227Y386170D01*
X524322Y386184D01*
X524418Y386193D01*
X524514Y386199D01*
X524610Y386201D01*
X524706Y386199D01*
X524802Y386193D01*
X524898Y386184D01*
X524993Y386170D01*
X525088Y386153D01*
X525182Y386132D01*
X525275Y386107D01*
X525367Y386079D01*
X525458Y386047D01*
X525547Y386011D01*
X525635Y385972D01*
X525721Y385929D01*
X525805Y385883D01*
X525888Y385833D01*
X525968Y385781D01*
X526047Y385725D01*
X526123Y385666D01*
X526196Y385604D01*
X526267Y385539D01*
X526336Y385471D01*
X526401Y385401D01*
X526464Y385328D01*
X526524Y385252D01*
X526581Y385175D01*
X526634Y385095D01*
X526685Y385013D01*
X526732Y384929D01*
X526775Y384843D01*
X526815Y384755D01*
X526852Y384666D01*
X526885Y384576D01*
X526885Y384575D02*
X526984Y384367D01*
X527077Y384157D01*
X527165Y383944D01*
X527248Y383730D01*
X527327Y383513D01*
X527399Y383295D01*
X527467Y383075D01*
X527529Y382854D01*
X527587Y382631D01*
X527638Y382406D01*
X527685Y382181D01*
X527726Y381955D01*
X527761Y381727D01*
X527791Y381499D01*
X527816Y381270D01*
X527835Y381041D01*
X527849Y380811D01*
X527857Y380581D01*
X527860Y380351D01*
X521361Y380351D02*
X521364Y380121D01*
X521372Y379891D01*
X521386Y379661D01*
X521405Y379432D01*
X521430Y379203D01*
X521460Y378975D01*
X521495Y378747D01*
X521536Y378521D01*
X521583Y378295D01*
X521634Y378071D01*
X521692Y377848D01*
X521754Y377627D01*
X521822Y377407D01*
X521894Y377188D01*
X521973Y376972D01*
X522056Y376757D01*
X522144Y376545D01*
X522238Y376334D01*
X522336Y376126D01*
X522335Y376127D02*
X522368Y376037D01*
X522405Y375948D01*
X522445Y375860D01*
X522488Y375774D01*
X522535Y375690D01*
X522586Y375608D01*
X522639Y375528D01*
X522696Y375451D01*
X522756Y375375D01*
X522819Y375302D01*
X522884Y375232D01*
X522953Y375164D01*
X523024Y375099D01*
X523097Y375037D01*
X523173Y374978D01*
X523252Y374922D01*
X523332Y374870D01*
X523415Y374820D01*
X523499Y374774D01*
X523585Y374731D01*
X523673Y374692D01*
X523762Y374656D01*
X523853Y374624D01*
X523945Y374596D01*
X524038Y374571D01*
X524132Y374550D01*
X524227Y374533D01*
X524322Y374519D01*
X524418Y374510D01*
X524514Y374504D01*
X524610Y374502D01*
X526885Y376127D02*
X526984Y376335D01*
X527077Y376545D01*
X527165Y376758D01*
X527248Y376972D01*
X527327Y377189D01*
X527399Y377407D01*
X527467Y377627D01*
X527529Y377848D01*
X527587Y378071D01*
X527638Y378296D01*
X527685Y378521D01*
X527726Y378747D01*
X527761Y378975D01*
X527791Y379203D01*
X527816Y379432D01*
X527835Y379661D01*
X527849Y379891D01*
X527857Y380121D01*
X527860Y380351D01*
X526885Y376127D02*
X526852Y376037D01*
X526815Y375948D01*
X526775Y375860D01*
X526732Y375774D01*
X526685Y375690D01*
X526634Y375608D01*
X526581Y375528D01*
X526524Y375451D01*
X526464Y375375D01*
X526401Y375302D01*
X526336Y375232D01*
X526267Y375164D01*
X526196Y375099D01*
X526123Y375037D01*
X526047Y374978D01*
X525968Y374922D01*
X525888Y374870D01*
X525805Y374820D01*
X525721Y374774D01*
X525635Y374731D01*
X525547Y374692D01*
X525458Y374656D01*
X525367Y374624D01*
X525275Y374596D01*
X525182Y374571D01*
X525088Y374550D01*
X524993Y374533D01*
X524898Y374519D01*
X524802Y374510D01*
X524706Y374504D01*
X524610Y374502D01*
X522011Y377102D02*
X527210Y383601D01*
X532804Y374502D02*
X536704Y374502D01*
X536804Y374504D01*
X536903Y374510D01*
X537002Y374519D01*
X537101Y374532D01*
X537199Y374550D01*
X537296Y374570D01*
X537393Y374595D01*
X537488Y374623D01*
X537583Y374655D01*
X537676Y374690D01*
X537768Y374729D01*
X537858Y374772D01*
X537946Y374818D01*
X538033Y374867D01*
X538117Y374920D01*
X538200Y374975D01*
X538280Y375034D01*
X538358Y375096D01*
X538434Y375161D01*
X538507Y375229D01*
X538577Y375299D01*
X538645Y375372D01*
X538710Y375448D01*
X538772Y375526D01*
X538831Y375606D01*
X538886Y375689D01*
X538939Y375773D01*
X538988Y375860D01*
X539034Y375948D01*
X539077Y376038D01*
X539116Y376130D01*
X539151Y376223D01*
X539183Y376318D01*
X539211Y376413D01*
X539236Y376510D01*
X539256Y376607D01*
X539274Y376705D01*
X539287Y376804D01*
X539296Y376903D01*
X539302Y377002D01*
X539304Y377102D01*
X539303Y377102D02*
X539303Y378402D01*
X539304Y378402D02*
X539302Y378502D01*
X539296Y378601D01*
X539287Y378700D01*
X539274Y378799D01*
X539256Y378897D01*
X539236Y378994D01*
X539211Y379091D01*
X539183Y379186D01*
X539151Y379281D01*
X539116Y379374D01*
X539077Y379466D01*
X539034Y379556D01*
X538988Y379644D01*
X538939Y379731D01*
X538886Y379815D01*
X538831Y379898D01*
X538772Y379978D01*
X538710Y380056D01*
X538645Y380132D01*
X538577Y380205D01*
X538507Y380275D01*
X538434Y380343D01*
X538358Y380408D01*
X538280Y380470D01*
X538200Y380529D01*
X538117Y380584D01*
X538033Y380637D01*
X537946Y380686D01*
X537858Y380732D01*
X537768Y380775D01*
X537676Y380814D01*
X537583Y380849D01*
X537488Y380881D01*
X537393Y380909D01*
X537296Y380934D01*
X537199Y380954D01*
X537101Y380972D01*
X537002Y380985D01*
X536903Y380994D01*
X536804Y381000D01*
X536704Y381002D01*
X536704Y381001D02*
X532804Y381001D01*
X532804Y386201D01*
X539303Y386201D01*
X544360Y379051D02*
X552159Y379051D01*
X557216Y374502D02*
X561115Y374502D01*
X561215Y374504D01*
X561314Y374510D01*
X561413Y374519D01*
X561512Y374532D01*
X561610Y374550D01*
X561707Y374570D01*
X561804Y374595D01*
X561899Y374623D01*
X561994Y374655D01*
X562087Y374690D01*
X562179Y374729D01*
X562269Y374772D01*
X562357Y374818D01*
X562444Y374867D01*
X562528Y374920D01*
X562611Y374975D01*
X562691Y375034D01*
X562769Y375096D01*
X562845Y375161D01*
X562918Y375229D01*
X562988Y375299D01*
X563056Y375372D01*
X563121Y375448D01*
X563183Y375526D01*
X563242Y375606D01*
X563297Y375689D01*
X563350Y375773D01*
X563399Y375860D01*
X563445Y375948D01*
X563488Y376038D01*
X563527Y376130D01*
X563562Y376223D01*
X563594Y376318D01*
X563622Y376413D01*
X563647Y376510D01*
X563667Y376607D01*
X563685Y376705D01*
X563698Y376804D01*
X563707Y376903D01*
X563713Y377002D01*
X563715Y377102D01*
X563715Y378402D01*
X563713Y378502D01*
X563707Y378601D01*
X563698Y378700D01*
X563685Y378799D01*
X563667Y378897D01*
X563647Y378994D01*
X563622Y379091D01*
X563594Y379186D01*
X563562Y379281D01*
X563527Y379374D01*
X563488Y379466D01*
X563445Y379556D01*
X563399Y379644D01*
X563350Y379731D01*
X563297Y379815D01*
X563242Y379898D01*
X563183Y379978D01*
X563121Y380056D01*
X563056Y380132D01*
X562988Y380205D01*
X562918Y380275D01*
X562845Y380343D01*
X562769Y380408D01*
X562691Y380470D01*
X562611Y380529D01*
X562528Y380584D01*
X562444Y380637D01*
X562357Y380686D01*
X562269Y380732D01*
X562179Y380775D01*
X562087Y380814D01*
X561994Y380849D01*
X561899Y380881D01*
X561804Y380909D01*
X561707Y380934D01*
X561610Y380954D01*
X561512Y380972D01*
X561413Y380985D01*
X561314Y380994D01*
X561215Y381000D01*
X561115Y381002D01*
X561115Y381001D02*
X557216Y381001D01*
X557216Y386201D01*
X563715Y386201D01*
M02*
